<svg width="16" height="16" version="1.1" viewBox="32.163 68.509 1.4602 1.4602" xmlns="http://www.w3.org/2000/svg">
 <path transform="matrix(.091262 0 0 .091262 32.163 68.509)" d="m3.8457 0a0.10519 0.10519 0 0 0-0.054688 0.013672 0.10519 0.10519 0 0 0-0.039062 0.14453l0.83203 1.4395c-0.68412 0.68261-1.1095 1.5675-1.123 2.543v0.035156h0.035156 9.043l-0.001953-0.035156c-0.013275-0.97569-0.43639-1.8622-1.1211-2.5449l0.83008-1.4375a0.10519 0.10519 0 0 0-0.03711-0.14453 0.10519 0.10519 0 0 0-0.054687-0.013672 0.10519 0.10519 0 0 0-0.089844 0.052734l-0.80664 1.3965c-0.71555-0.64427-1.6738-1.0815-2.752-1.1855l-0.0019532-0.0019531s-0.33286-0.023438-0.50391-0.023438v-0.0019531c-0.17105 0-0.50391 0.025391-0.50391 0.025391h-0.0019532c-1.0781 0.10396-2.0364 0.54319-2.752 1.1875l-0.80664-1.3965a0.10519 0.10519 0 0 0-0.089844-0.052734zm2.2773 1.8457a0.50909 0.50909 0 0 1 0.019531 0 0.50909 0.50909 0 0 1 0.50781 0.50781 0.50909 0.50909 0 0 1-0.50781 0.50977 0.50909 0.50909 0 0 1-0.50977-0.50977 0.50909 0.50909 0 0 1 0.49023-0.50781zm3.8555 0a0.50909 0.50909 0 0 1 0.019531 0 0.50909 0.50909 0 0 1 0.50977 0.50781 0.50909 0.50909 0 0 1-0.50977 0.50977 0.50909 0.50909 0 0 1-0.50977-0.50977 0.50909 0.50909 0 0 1 0.49023-0.50781zm-6.543 2.6875-0.0039063 0.03125c-0.0033201 0.038351-0.0058593 0.077083-0.0058594 0.11719v6.4922c0 0.71651 0.56837 1.2949 1.2734 1.2949h0.013672v2.5332c0 0.57045 0.46471 1.0332 1.0352 1.0332 0.57045 0 1.0332-0.46276 1.0332-1.0332v-2.5332h2.4375v2.5332c0 0.57045 0.46276 1.0332 1.0332 1.0332 0.57045 0 1.0352-0.46276 1.0352-1.0332v-2.5332h0.013672c0.70511 0 1.2734-0.57847 1.2734-1.2949v-6.4922c0-0.039447-0.00254-0.078179-0.00586-0.11719l-0.001953-0.03125h-9.1309zm-1.5781 0.57812c-0.57056 0-1.0352 0.46276-1.0352 1.0332v4.2832c0 0.57045 0.4646 1.0352 1.0352 1.0352 0.57045 0 1.0332-0.4646 1.0332-1.0352v-4.2832c0-0.57056-0.46276-1.0332-1.0332-1.0332zm12.285 0c-0.57056 0-1.0332 0.46265-1.0332 1.0332v4.2832c0 0.57045 0.46265 1.0352 1.0332 1.0352 0.57045 0 1.0352-0.4646 1.0352-1.0352v-4.2832c0-0.57056-0.46471-1.0332-1.0352-1.0332z" color="#000000" color-rendering="auto" dominant-baseline="auto" image-rendering="auto" shape-rendering="auto" solid-color="#000000" stop-color="#000000" style="font-feature-settings:normal;font-variant-alternates:normal;font-variant-caps:normal;font-variant-east-asian:normal;font-variant-ligatures:normal;font-variant-numeric:normal;font-variant-position:normal;font-variation-settings:normal;inline-size:0;isolation:auto;mix-blend-mode:normal;shape-margin:0;shape-padding:0;text-decoration-color:#000000;text-decoration-line:none;text-decoration-style:solid;text-indent:0;text-orientation:mixed;text-transform:none;white-space:normal"/>
</svg>
