<svg fill="currentColor" viewBox="0 0 16 16" xmlns="http://www.w3.org/2000/svg"><path d="m3.855 6.0963e-5a0.10496 0.10496 0 0 0-0.05456 0.01312 0.10496 0.10496 0 0 0-0.03892 0.14421l0.83018 1.4363c-0.6826 0.68113-1.107 1.564-1.1205 2.5374v0.03499h9.058l-0.0019-0.03499c-0.013389-0.97305-0.43555-1.8575-1.1187-2.5387l0.82824-1.4343a0.10496 0.10496 0 0 0-0.03706-0.14421 0.10496 0.10496 0 0 0-0.05456-0.01312 0.10496 0.10496 0 0 0-0.08965 0.052479l-0.80482 1.393c-0.71396-0.64287-1.6701-1.0791-2.7459-1.1829l-0.0019-0.00195s-0.33213-0.022959-0.50279-0.022959v-0.00195c-0.17067 0-0.50279 0.025146-0.50279 0.025146h-0.0019c-1.0758 0.10387-2.032 0.54196-2.746 1.1849l-0.80484-1.3934a0.10496 0.10496 0 0 0-0.08965-0.052479zm2.2722 1.8416a0.50796 0.50796 0 0 1 0.01946 0 0.50796 0.50796 0 0 1 0.50668 0.50664 0.50796 0.50796 0 0 1-0.50668 0.50861 0.50796 0.50796 0 0 1-0.50864-0.50861 0.50796 0.50796 0 0 1 0.48914-0.50664zm3.8469 0a0.50796 0.50796 0 0 1 0.01946 0 0.50796 0.50796 0 0 1 0.50864 0.50664 0.50796 0.50796 0 0 1-0.50864 0.50861 0.50796 0.50796 0 0 1-0.50864-0.50861 0.50796 0.50796 0 0 1 0.48914-0.50664zm-6.5285 2.6815-0.0039 0.03171c-0.00331 0.03827-0.00585 0.07653-0.00585 0.11688v6.4778c0 0.71492 0.56711 1.292 1.2706 1.292h0.01367v2.5276c0 0.56918 0.46367 1.0309 1.0329 1.0309 0.56918 0 1.0309-0.4617 1.0309-1.0309v-2.5276h2.4321v2.5276c0 0.56918 0.46173 1.0309 1.0309 1.0309 0.56918 0 1.0329-0.4617 1.0329-1.0309v-2.5276h0.01367c0.70354 0 1.2706-0.57716 1.2706-1.292v-6.4778c0-0.03936-0.0025-0.07762-0.0058-0.11688l-0.0019-0.03171h-9.1107zm-1.5746 0.57683c-0.5693 0-1.0329 0.4617-1.0329 1.0309v4.2737c0 0.56918 0.46356 1.0328 1.0329 1.0328 0.56918 0 1.0309-0.46356 1.0309-1.0328v-4.2737c0-0.56929-0.46173-1.0309-1.0309-1.0309zm12.258 0c-0.56929 0-1.0309 0.4616-1.0309 1.0309v4.2737c0 0.56918 0.46162 1.0328 1.0309 1.0328 0.56918 0 1.0329-0.46356 1.0329-1.0328v-4.2737c0-0.56929-0.46367-1.0309-1.0329-1.0309z" color-rendering="auto" dominant-baseline="auto" image-rendering="auto" shape-rendering="auto" stroke-width=".99778" style="font-feature-settings:normal;font-variant-alternates:normal;font-variant-caps:normal;font-variant-east-asian:normal;font-variant-ligatures:normal;font-variant-numeric:normal;font-variant-position:normal;font-variation-settings:normal;inline-size:0;isolation:auto;mix-blend-mode:normal;shape-margin:0;shape-padding:0;text-decoration-line:none;text-decoration-style:solid;text-indent:0;text-orientation:mixed;text-transform:none;white-space:normal"/></svg>