<svg fill="currentColor" viewBox="0 0 16 16" xmlns="http://www.w3.org/2000/svg"><path d="m7.959 0c-4.4043 0.022602-7.9705 3.6184-7.959 8.0234 0.011551 4.4052 3.5968 7.9766 8 7.9766 4.4032 0 7.9885-3.5715 8-7.9766 0.011551-4.4052-3.5545-8.0011-7.959-8.0234h-0.0019531-0.080078zm-0.30469 1.0176v3.8711c-0.8679-0.031123-1.7337-0.17234-2.5703-0.4375 0.54881-1.3065 1.3974-2.4834 2.4941-3.4297 0.025372-0.0015177 0.050727-0.0026583 0.076172-0.0039063zm0.69141 0c0.025376 0.0012404 0.050869 0.0023976 0.076172 0.0039063 1.0968 0.9463 1.9453 2.1232 2.4941 3.4297-0.83659 0.26517-1.7024 0.40636-2.5703 0.4375v-3.8711zm-1.9434 0.16992c-0.84027 0.88747-1.5071 1.9143-1.9707 3.0293-0.57275-0.22811-1.1216-0.52926-1.6523-0.87109 0.94177-1.0563 2.1954-1.8254 3.623-2.1582zm3.1934 0c1.4283 0.33248 2.6828 1.1015 3.625 2.1582-0.53076 0.34183-1.0796 0.64299-1.6523 0.87109-0.4636-1.115-1.1324-2.1418-1.9727-3.0293zm4.0625 2.6992c0.77754 1.0685 1.2557 2.3645 1.3242 3.7715h-2.6582c-0.037077-0.96025-0.21064-1.9003-0.51172-2.7949 0.64049-0.25408 1.2548-0.58995 1.8457-0.97656zm-11.316 0.0019531c0.5904 0.38609 1.2059 0.7208 1.8457 0.97461-0.30109 0.89463-0.47464 1.8347-0.51172 2.7949h-2.6582c0.068408-1.4063 0.54723-2.7012 1.3242-3.7695zm2.4961 1.209c0.91597 0.29389 1.865 0.45063 2.8164 0.48242v2.0781h-3.2852c0.036482-0.8797 0.19411-1.7404 0.46875-2.5605zm6.3223 0c0.27466 0.8202 0.43424 1.6808 0.4707 2.5605h-3.2852v-2.0781c0.9514-0.031798 1.8985-0.18853 2.8145-0.48242zm-10.143 3.2539h2.6562c0.029729 0.96233 0.19723 1.9048 0.49219 2.8027-0.63103 0.25195-1.2376 0.58392-1.8203 0.96484-0.77766-1.0667-1.2589-2.3601-1.3281-3.7676zm3.3477 0h3.2891v2.0781c-0.95886 0.032048-1.9152 0.19196-2.8379 0.49023-0.26861-0.82347-0.4219-1.6866-0.45117-2.5684zm3.9805 0h3.2871c-0.02926 0.88174-0.18254 1.7449-0.45117 2.5684-0.92266-0.29828-1.8771-0.45821-2.8359-0.49023v-2.0781zm3.9805 0h2.6562c-0.069282 1.408-0.54994 2.7026-1.3281 3.7695-0.5833-0.38146-1.1886-0.71457-1.8203-0.9668 0.29497-0.89794 0.46246-1.8404 0.49219-2.8027zm-4.6719 2.7695v3.8613c-0.057385-0.002797-0.11487-0.005603-0.17188-0.009766-1.0666-0.94736-1.8945-2.1094-2.4258-3.4023 0.84559-0.27098 1.7197-0.41774 2.5977-0.44922zm0.69141 0c0.87797 0.03148 1.752 0.17822 2.5977 0.44922-0.53126 1.2928-1.3593 2.455-2.4258 3.4023-0.05701 0.004163-0.11449 0.006969-0.17188 0.009766v-3.8613zm-3.9414 0.68359c0.44449 1.0914 1.0817 2.1006 1.8867 2.9785-1.3784-0.34497-2.591-1.0959-3.5078-2.1211 0.52062-0.33521 1.0599-0.63182 1.6211-0.85742zm7.1914 0c0.56121 0.22558 1.1005 0.5222 1.6211 0.85742-0.91675 1.0252-2.1294 1.7761-3.5078 2.1211 0.80505-0.87801 1.4422-1.8872 1.8867-2.9785z" shape-rendering="auto" stroke="none" style="font-feature-settings:normal;font-variant-alternates:normal;font-variant-caps:normal;font-variant-east-asian:normal;font-variant-ligatures:normal;font-variant-numeric:normal;font-variant-position:normal;font-variation-settings:normal;inline-size:0;isolation:auto;mix-blend-mode:normal;shape-margin:0;shape-padding:0;text-decoration-color:#000000;text-decoration-line:none;text-decoration-style:solid;text-indent:0;text-orientation:mixed;text-transform:none;white-space:normal"/></svg>