<?xml version="1.0" encoding="UTF-8" standalone="no"?>
<!-- Created with Inkscape (http://www.inkscape.org/) -->

<svg
   xmlns:dc="http://purl.org/dc/elements/1.1/"
   xmlns:cc="http://creativecommons.org/ns#"
   xmlns:rdf="http://www.w3.org/1999/02/22-rdf-syntax-ns#"
   xmlns:svg="http://www.w3.org/2000/svg"
   xmlns="http://www.w3.org/2000/svg"
   xmlns:sodipodi="http://sodipodi.sourceforge.net/DTD/sodipodi-0.dtd"
   xmlns:inkscape="http://www.inkscape.org/namespaces/inkscape"
   sodipodi:docname="Comic FX f1 - Copy (2) - Copy - Copy.svg"
   inkscape:version="0.92.1 r15371"
   id="svg8"
   version="1.1"
   viewBox="0 0 36.989967 25.454393"
   height="25.454393mm"
   width="36.989967mm">
  <defs
     id="defs2" />
  <sodipodi:namedview
     inkscape:window-maximized="1"
     inkscape:window-y="-8"
     inkscape:window-x="-8"
     inkscape:window-height="705"
     inkscape:window-width="1368"
     showgrid="false"
     inkscape:current-layer="layer1"
     inkscape:document-units="mm"
     inkscape:cy="-728.27783"
     inkscape:cx="-767.17387"
     inkscape:zoom="0.20280137"
     inkscape:pageshadow="2"
     inkscape:pageopacity="0.0"
     borderopacity="1.0"
     bordercolor="#666666"
     pagecolor="#ffffff"
     id="base" />
  <metadata
     id="metadata5">
    <rdf:RDF>
      <cc:Work
         rdf:about="">
        <dc:format>image/svg+xml</dc:format>
        <dc:type
           rdf:resource="http://purl.org/dc/dcmitype/StillImage" />
        <dc:title />
      </cc:Work>
    </rdf:RDF>
  </metadata>
  <g
     inkscape:label="Layer 1"
     inkscape:groupmode="layer"
     id="layer1"
     transform="translate(-68.310046,60.98109)">
    <path
       inkscape:connector-curvature="0"
       style="fill:#ffffff;fill-opacity:1;fill-rule:nonzero;stroke:#000000;stroke-width:0.99599993;stroke-linecap:round;stroke-linejoin:round;stroke-miterlimit:10;stroke-dasharray:none;stroke-opacity:1"
       d="m 86.803594,-60.483018 c -3.099087,-2.31e-4 -6.198162,0.0177 -9.296883,0.05556 -0.2973,0.0036 -0.596019,-0.0111 -0.891414,0.0225 -0.573498,0.06534 -1.144497,0.17811 -1.696158,0.348123 -0.540417,0.1665 -1.066413,0.387846 -1.565907,0.653097 -0.4902,0.26037 -0.959994,0.565866 -1.392042,0.914478 -0.427056,0.344574 -0.820419,0.733941 -1.174008,1.153686 -0.352602,0.418608 -0.671304,0.870183 -0.935007,1.349871 -0.26937,0.490032 -0.486048,1.011498 -0.65241,1.545447 -0.16977,0.544818 -0.27585,1.110357 -0.348309,1.676424 -0.03687,0.28827 -0.04341,0.58017 -0.04341,0.870804 0,0.29061 0.0069,0.582531 0.04341,0.870792 0.07245,0.566091 0.17715,1.13205 0.348309,1.676433 0.16572,0.52716 0.38682,1.039401 0.65241,1.523889 0.26601,0.485262 0.580146,0.946941 0.935007,1.371411 0.351999,0.42108 0.746967,0.809139 1.174008,1.153704 0.432048,0.348636 0.901842,0.654123 1.392042,0.914475 0.499494,0.26526 1.02549,0.486606 1.425384,0.644973 1.979175,-0.15843 -3.319773,7.639365 -3.90591,7.7127 4.249986,-1.756335 8.20341,-3.839226 10.910358,-7.294683 l -0.0186,-4.95e-4 c 4.778718,0.03126 9.557739,0.0177 14.336094,-0.03921 0.304524,-0.0036 0.610893,0.0132 0.913488,-0.0216 0.573519,-0.06525 1.144509,-0.17874 1.696161,-0.348681 0.540417,-0.1665 1.066425,-0.387798 1.565903,-0.653106 0.49021,-0.26031 0.96,-0.565845 1.39205,-0.914463 0.42705,-0.344577 0.82198,-0.732636 1.174,-1.153707 0.35485,-0.424488 0.66958,-0.886149 0.93559,-1.371411 0.26559,-0.484488 0.48668,-0.996738 0.65241,-1.523898 0.17112,-0.544374 0.28236,-1.109475 0.3477,-1.676421 0.0331,-0.28842 0.0216,-0.580437 0.0216,-0.870792 0,-0.29037 0.0117,-0.58236 -0.0216,-0.87081 -0.0653,-0.566931 -0.17799,-1.1316 -0.3477,-1.676415 -0.16635,-0.533964 -0.38304,-1.055421 -0.65241,-1.545453 -0.26373,-0.479688 -0.58302,-0.931266 -0.93561,-1.34985 -0.35359,-0.419772 -0.74697,-0.80913 -1.17401,-1.153695 -0.43205,-0.348591 -0.90184,-0.654129 -1.39204,-0.914469 -0.499488,-0.26526 -1.025493,-0.486615 -1.56591,-0.653097 -0.551652,-0.16995 -1.122642,-0.2829 -1.696164,-0.348123 -0.30261,-0.03453 -0.608955,-0.0183 -0.913488,-0.0225 -3.098733,-0.03687 -6.197808,-0.05535 -9.296886,-0.05556 z"
       id="path24029" />
    <path
       inkscape:connector-curvature="0"
       id="path5436"
       style="font-style:normal;font-variant:normal;font-weight:bold;font-stretch:normal;font-size:2.82222223px;line-height:13.22916603px;font-family:'Comic Sans MS';-inkscape-font-specification:'Comic Sans MS Bold';text-align:center;letter-spacing:0px;word-spacing:0px;text-anchor:middle;fill:#000000;fill-opacity:1;stroke:none;stroke-width:0.79374993px;stroke-linecap:butt;stroke-linejoin:miter;stroke-opacity:1"
       d="m 77.316286,-49.942551 q -1.045908,0.09333 -1.688628,-0.318303 -0.541026,-0.341868 -0.58623,-0.848349 -0.0231,-0.25941 0.11826,-0.442212 0.14103,-0.1869 0.416928,-0.21153 0.370599,-0.03306 0.577353,0.330324 0.27993,0.485535 1.107582,0.411666 0.708252,-0.06321 1.343649,-0.431208 0.659367,-0.378438 0.625557,-0.757272 -0.04632,-0.518835 -0.489252,-0.645324 -0.315372,-0.09222 -1.235466,-0.03087 -0.713841,0.0471 -1.300389,-0.15372 -0.792288,-0.27378 -0.836895,-0.913137 -0.05931,-0.804063 0.725292,-1.546476 0.784236,-0.746532 1.80132,-0.837303 0.403539,-0.036 1.013034,0.09636 0.757656,0.16482 0.784485,0.465408 0.0192,0.21411 -0.11442,0.392061 -0.14817,0.20001 -0.407592,0.22314 -0.19353,0.0174 -0.587952,-0.03054 -0.3903,-0.04818 -0.587952,-0.03054 -0.530823,0.05151 -0.986064,0.345336 -0.471345,0.2994 -0.444516,0.599997 0.0141,0.15648 0.17139,0.24618 0.16119,0.08523 0.465447,0.09957 0.529644,-0.0183 1.055172,-0.03606 0.920388,-0.0117 1.491267,0.385725 0.628818,0.441945 0.706728,1.314909 0.0948,1.062378 -1.066923,1.718085 -0.885258,0.49821 -2.07117,0.60405 z" />
    <path
       inkscape:connector-curvature="0"
       id="path5438"
       style="font-style:normal;font-variant:normal;font-weight:bold;font-stretch:normal;font-size:2.82222223px;line-height:13.22916603px;font-family:'Comic Sans MS';-inkscape-font-specification:'Comic Sans MS Bold';text-align:center;letter-spacing:0px;word-spacing:0px;text-anchor:middle;fill:#000000;fill-opacity:1;stroke:none;stroke-width:0.79374993px;stroke-linecap:butt;stroke-linejoin:miter;stroke-opacity:1"
       d="m 86.170888,-54.040692 q -0.322458,0 -1.004589,-0.04548 -0.657324,-0.04548 -1.004589,-0.04134 0.0165,0.471288 0.11163,1.678449 0.08682,1.066602 0.08682,1.68672 0,0.14055 0.0288,0.417546 0.0288,0.27699 0.0288,0.417546 0,0.310056 -0.1323,0.558105 -0.1695,0.318327 -0.48369,0.318327 -0.22737,0 -0.40101,-0.14469 -0.19431,-0.16122 -0.19431,-0.405141 0,-0.05787 0.0207,-0.17364 0.0207,-0.11988 0.0207,-0.18189 0,-0.19017 -0.0288,-0.574641 -0.0249,-0.384474 -0.0249,-0.578775 0,-0.553971 -0.08682,-1.500684 -0.09921,-1.087272 -0.11574,-1.500684 h -0.21498 q -0.921906,0 -1.463475,-0.1323 -0.458889,-0.11163 -0.458889,-0.541569 0,-0.21084 0.14883,-0.38034 0.17364,-0.20256 0.454752,-0.18189 0.14469,0.0084 0.657324,0.07029 0.409278,0.04548 0.661458,0.04548 0.25218,0 0.752409,-0.0084 0.504363,-0.0084 0.756543,-0.0084 0.314193,0 0.942579,0.04548 0.628386,0.04134 0.942576,0.04134 0.24804,0 0.413412,0.16122 0.1695,0.16122 0.1695,0.396873 0,0.23565 -0.1695,0.40101 -0.16536,0.16122 -0.413412,0.16122 z" />
    <path
       inkscape:connector-curvature="0"
       id="path5440"
       style="font-style:normal;font-variant:normal;font-weight:bold;font-stretch:normal;font-size:2.82222223px;line-height:13.22916603px;font-family:'Comic Sans MS';-inkscape-font-specification:'Comic Sans MS Bold';text-align:center;letter-spacing:0px;word-spacing:0px;text-anchor:middle;fill:#000000;fill-opacity:1;stroke:none;stroke-width:0.79374993px;stroke-linecap:butt;stroke-linejoin:miter;stroke-opacity:1"
       d="m 89.949472,-49.731708 q -1.2237,0 -2.083596,-0.702801 -0.917772,-0.752409 -0.917772,-1.947168 0,-1.405599 0.880566,-2.563149 0.988053,-1.302246 2.488737,-1.302246 1.442805,0 2.162142,0.661458 0.719337,0.661458 0.719337,1.988508 0,1.405599 -0.810288,2.546616 -0.934311,1.318782 -2.439126,1.318782 z m 0.367935,-5.39502 q -0.921909,0 -1.579233,0.892968 -0.615981,0.835092 -0.615981,1.852083 0,0.686265 0.533301,1.116213 0.512628,0.413409 1.293978,0.413409 0.909504,0 1.51722,-0.892968 0.558105,-0.814419 0.558105,-1.852083 0,-0.868164 -0.388608,-1.207161 -0.372069,-0.322461 -1.318782,-0.322461 z" />
    <path
       inkscape:connector-curvature="0"
       id="path5442"
       style="font-style:normal;font-variant:normal;font-weight:bold;font-stretch:normal;font-size:2.82222223px;line-height:13.22916603px;font-family:'Comic Sans MS';-inkscape-font-specification:'Comic Sans MS Bold';text-align:center;letter-spacing:0px;word-spacing:0px;text-anchor:middle;fill:#000000;fill-opacity:1;stroke:none;stroke-width:0.79374993px;stroke-linecap:butt;stroke-linejoin:miter;stroke-opacity:1"
       d="m 95.365414,-51.233139 q -0.07002,-0.006 -0.343422,-0.0591 -0.07515,0.57441 -0.19047,1.892295 -0.0192,0.21828 -0.18516,0.36144 -0.16608,0.14316 -0.400818,0.12264 -0.23475,-0.0204 -0.377556,-0.19074 -0.13869,-0.16983 -0.11958,-0.388104 l 0.10053,-1.149027 q 0.05586,-0.638352 0.24774,-1.883133 0.18957,-1.265733 0.24846,-1.891368 0.0978,-1.070418 0.691002,-0.972873 0.14328,-0.0249 0.391812,-0.0198 0.24891,10e-4 0.603084,0.03201 0.807204,0.07062 1.469805,0.655629 0.735447,0.653631 0.661944,1.493781 -0.09225,1.054305 -0.982677,1.603038 -0.789231,0.482889 -1.814709,0.393171 z m 0.477954,-3.091362 q -0.13179,-0.0114 -0.23511,-0.0165 -0.09885,-0.0087 -0.16956,-0.0066 -0.0168,0.19356 -0.05493,0.580332 -0.04824,0.45642 -0.20292,1.418115 0.20715,0.05133 0.27717,0.05745 0.642468,0.05622 1.093323,-0.21144 0.481488,-0.28572 0.528327,-0.821109 0.03063,-0.350061 -0.369786,-0.658986 -0.38466,-0.29925 -0.866511,-0.341403 z" />
    <path
       inkscape:connector-curvature="0"
       id="path5444"
       style="font-style:normal;font-variant:normal;font-weight:bold;font-stretch:normal;font-size:2.82222223px;line-height:13.22916603px;font-family:'Comic Sans MS';-inkscape-font-specification:'Comic Sans MS Bold';text-align:center;letter-spacing:0px;word-spacing:0px;text-anchor:middle;fill:#000000;fill-opacity:1;stroke:none;stroke-width:0.79374993px;stroke-linecap:butt;stroke-linejoin:miter;stroke-opacity:1"
       d="m 99.176389,-51.019341 q -0.228,-0.0402 -0.353505,-0.20925 -0.12144,-0.16833 -0.0834,-0.38412 0.0279,-0.15879 0.07107,-0.474423 0.04785,-0.318999 0.07584,-0.47778 0.09906,-0.56184 0.305346,-1.684086 0.21036,-1.121526 0.309417,-1.683369 0.03804,-0.21579 0.21381,-0.331713 0.17649,-0.12 0.400403,-0.08052 0.22392,0.03948 0.34872,0.21261 0.12552,0.16905 0.0875,0.384837 l -0.761675,4.319658 q -0.03804,0.21579 -0.21381,0.331713 -0.17169,0.11664 -0.399687,0.07644 z m -0.27282,1.47573 q -0.24429,-0.04308 -0.410043,-0.340965 -0.14901,-0.27396 -0.11238,-0.481584 0.03732,-0.21171 0.22938,-0.324771 0.19206,-0.11307 0.403755,-0.07572 0.24429,0.04308 0.405972,0.340248 0.14901,0.27396 0.1131,0.477513 -0.0366,0.20763 -0.22938,0.324771 -0.1887,0.11784 -0.400404,0.08052 z" />
  </g>
</svg>
