<?xml version="1.0" encoding="UTF-8" standalone="no"?>
<svg
   xmlns:dc="http://purl.org/dc/elements/1.1/"
   xmlns:cc="http://creativecommons.org/ns#"
   xmlns:rdf="http://www.w3.org/1999/02/22-rdf-syntax-ns#"
   xmlns:svg="http://www.w3.org/2000/svg"
   xmlns="http://www.w3.org/2000/svg"
   xmlns:sodipodi="http://sodipodi.sourceforge.net/DTD/sodipodi-0.dtd"
   xmlns:inkscape="http://www.inkscape.org/namespaces/inkscape"
   sodipodi:docname="Uwaaahhh!!!.svg"
   inkscape:version="1.0.1 (3bc2e813f5, 2020-09-07)"
   id="svg8"
   version="1.1"
   viewBox="0 0 55.946243 26.4228"
   height="26.4228mm"
   width="55.946243mm">
  <defs
     id="defs2" />
  <sodipodi:namedview
     inkscape:window-maximized="1"
     inkscape:window-y="32"
     inkscape:window-x="0"
     inkscape:window-height="982"
     inkscape:window-width="1920"
     showgrid="false"
     inkscape:current-layer="g843"
     inkscape:document-units="mm"
     inkscape:cy="-2.1835005"
     inkscape:cx="75.640469"
     inkscape:zoom="2.8284271"
     inkscape:pageshadow="2"
     inkscape:pageopacity="0.0"
     borderopacity="1.0"
     bordercolor="#666666"
     pagecolor="#ffffff"
     id="base"
     inkscape:document-rotation="0"
     fit-margin-top="0"
     fit-margin-left="0"
     fit-margin-right="0"
     fit-margin-bottom="0" />
  <metadata
     id="metadata5">
    <rdf:RDF>
      <cc:Work
         rdf:about="">
        <dc:format>image/svg+xml</dc:format>
        <dc:type
           rdf:resource="http://purl.org/dc/dcmitype/StillImage" />
        <dc:title></dc:title>
      </cc:Work>
    </rdf:RDF>
  </metadata>
  <g
     inkscape:label="Layer 1"
     inkscape:groupmode="layer"
     id="layer1"
     transform="translate(-68.785094,61.699453)">
    <g
       id="g843"
       transform="translate(0.52916667,0.52916663)">
      <path
         inkscape:connector-curvature="0"
         style="fill:#9c2919;fill-opacity:1;fill-rule:nonzero;stroke:none;stroke-width:0.996;stroke-linecap:round;stroke-linejoin:round;stroke-miterlimit:10;stroke-dasharray:none;stroke-opacity:1"
         d="m 104.24546,-60.804366 c 3.09908,-2.31e-4 3.1173,-1.46139 6.21602,-1.42353 0.2973,0.0036 3.67688,1.46799 3.97227,1.50159 0.5735,0.06534 1.1445,0.17811 1.69616,0.348123 0.54042,0.1665 1.06641,0.387846 1.56591,0.653097 0.4902,0.26037 0.95999,0.565866 1.39204,0.914478 0.42706,0.344574 0.82042,0.733941 1.17401,1.153686 0.3526,0.418608 0.6713,0.870183 0.93501,1.349871 0.26937,0.490032 0.48604,1.011498 0.65241,1.545447 0.16977,0.544818 0.27585,1.110357 0.3483,1.676424 0.0369,0.28827 0.0434,0.58017 0.0434,0.870804 0,0.29061 -0.007,0.582531 -0.0434,0.870792 -0.0725,0.566091 -0.17715,1.13205 -0.3483,1.676433 -0.16572,0.52716 -0.38682,1.039401 -0.65241,1.523889 -0.26601,0.485262 -0.58015,0.946941 -0.93501,1.371411 -0.352,0.42108 -0.74697,0.809139 -1.17401,1.153704 -0.43205,0.348636 -0.90184,0.654123 -1.39204,0.914475 -0.4995,0.26526 -1.02549,0.486606 -1.42539,0.644973 -0.98958,-0.07922 0.78456,1.816715 2.19346,3.124581 3.65431,0.874855 5.44522,5.091631 5.73828,5.128298 -4.24998,-1.756335 -9.1557,-1.427372 -11.20303,-4.833787 l -3.71455,-3.00157 c -4.77872,0.03126 -8.97331,1.277357 -13.751658,1.220447 -0.30453,-0.0036 -9.529503,-0.04203 -9.832093,-0.07683 -0.57352,-0.06525 -7.130693,-2.232315 -7.682343,-2.402256 -0.54042,-0.1665 -4.737746,0.461352 -5.237226,0.196044 -0.49021,-0.26031 -0.96,-0.565845 -1.39205,-0.914463 -0.42705,-0.344577 -0.82198,-0.732636 -1.174,-1.153707 -0.35485,-0.424488 -0.66958,-0.886149 -0.93559,-1.371411 -0.26559,-0.484488 -0.48668,-0.996738 -0.65241,-1.523898 -0.17112,-0.544374 -0.28236,-1.109475 -0.3477,-1.676421 -0.0331,-0.28842 -0.0216,-0.580437 -0.0216,-0.870792 0,-0.29037 -0.0117,-0.58236 0.0216,-0.87081 0.0653,-0.566931 0.17799,-1.1316 0.3477,-1.676415 0.16635,-0.533964 0.38304,-1.055421 0.65241,-1.545453 0.26373,-0.479688 0.58302,-0.931266 0.93561,-1.34985 0.35359,-0.419772 0.74697,-0.80913 1.17401,-1.153695 0.43205,-0.348591 0.90184,-0.654129 1.39204,-0.914469 0.49949,-0.26526 1.0255,-0.486615 1.56591,-0.653097 0.55166,-0.16995 1.12265,-0.2829 1.69617,-0.348123 0.30261,-0.03453 2.211654,-0.766945 2.516194,-0.771145 3.09873,-0.03687 22.586766,0.693295 25.685846,0.693085 z"
         id="path24029"
         sodipodi:nodetypes="ccccccccccscccccccccccccccscsccscccsccccccc" />
      <text
         xml:space="preserve"
         style="font-style:normal;font-weight:normal;font-size:10.1815px;line-height:1.25;font-family:sans-serif;letter-spacing:0px;word-spacing:0px;fill:#fffffa;fill-opacity:1;stroke:none;stroke-width:0.254537"
         x="83.858482"
         y="-41.834274"
         id="text838"
         transform="scale(0.84485755,1.1836315)"><tspan
           sodipodi:role="line"
           id="tspan836"
           x="83.858482"
           y="-41.834274"
           style="font-style:normal;font-variant:normal;font-weight:normal;font-stretch:normal;font-family:'Humor Sans';-inkscape-font-specification:'Humor Sans';fill:#fffffa;fill-opacity:1;stroke-width:0.254537">Uwaaahhh!!!</tspan></text>
    </g>
  </g>
</svg>
