<?xml version="1.0" encoding="UTF-8" standalone="no"?>
<svg
   fill="currentColor"
   xmlns:dc="http://purl.org/dc/elements/1.1/"
   xmlns:cc="http://creativecommons.org/ns#"
   xmlns:rdf="http://www.w3.org/1999/02/22-rdf-syntax-ns#"
   xmlns:svg="http://www.w3.org/2000/svg"
   xmlns="http://www.w3.org/2000/svg"
   width="50.868mm"
   height="9mm"
   viewBox="0 0 50.868 8.9999999"
   version="1.1"
   id="svg927">
  <defs
     id="defs921" />
  <metadata
     id="metadata924">
    <rdf:RDF>
      <cc:Work
         rdf:about="">
        <dc:format>image/svg+xml</dc:format>
        <dc:type
           rdf:resource="http://purl.org/dc/dcmitype/StillImage" />
        <dc:title />
      </cc:Work>
    </rdf:RDF>
  </metadata>
  <g
     id="layer1">
    <g
       id="text1492"
       style="font-style:normal;font-weight:normal;font-size:4.23333px;line-height:1.15;font-family:sans-serif;letter-spacing:0px;word-spacing:0px;fill-opacity:1;stroke:none;stroke-width:0.264583">
      <path
         d="m 1.2960438,2.1063296 q 0,0.2955889 0.146761,0.4650875 0.1467609,0.1674315 0.4030758,0.1674315 0.2542478,0 0.3989417,-0.1694986 0.146761,-0.1694985 0.146761,-0.4630204 0,-0.2893878 -0.148828,-0.4588864 -0.148828,-0.1715656 -0.4010088,-0.1715656 -0.2501137,0 -0.3989417,0.1694986 -0.146761,0.1694985 -0.146761,0.4609534 z m 1.1265453,0.6180496 q -0.1240233,0.1591633 -0.2852537,0.2356443 -0.1591632,0.074414 -0.37207,0.074414 -0.3555335,0 -0.5787755,-0.2563149 -0.22117495,-0.2583819 -0.22117495,-0.671793 0,-0.4134111 0.22324195,-0.6717931 0.223242,-0.2583819 0.5767085,-0.2583819 0.2129068,0 0.3741371,0.078548 0.1612303,0.076481 0.2831866,0.2335773 V 1.2174957 h 0.295589 V 2.7388486 Q 3.0199682,2.6933733 3.1894667,2.4639302 3.3610323,2.23242 3.3610323,1.8665511 q 0,-0.2211749 -0.066146,-0.4154781 Q 3.2308078,1.2567697 3.0985163,1.0914053 2.8835425,0.82062101 2.5734842,0.67799418 2.2654929,0.53330029 1.9016911,0.53330029 q -0.2542478,0 -0.4878251,0.0682128 Q 1.1802887,0.6676589 0.98185139,0.79995045 0.65732367,1.0107901 0.47335573,1.3539213 0.29145484,1.6949855 0.29145484,2.0939272 q 0,0.3286619 0.11782216,0.6159826 0.11988923,0.2873207 0.34519828,0.5064286 0.21704083,0.2149738 0.50229452,0.3265948 0.2852536,0.113688 0.6097814,0.113688 0.2666501,0 0.522965,-0.09095 0.258382,-0.088883 0.4733557,-0.2563149 l 0.186035,0.2294432 Q 2.790525,3.7393035 2.4846008,3.8447233 2.1807436,3.9522102 1.8665512,3.9522102 q -0.3824053,0 -0.7214024,-0.1364257 Q 0.80615167,3.6814259 0.54156856,3.423044 0.27698545,3.164662 0.13849273,2.8256649 0,2.4846007 0,2.0939272 0,1.7177231 0.14055978,1.376659 0.28111956,1.0355948 0.54156856,0.77721284 0.80821873,0.51469679 1.1575511,0.37620407 1.5068835,0.23564429 1.897557,0.23564429 q 0.4382158,0 0.8123528,0.17983383 0.3762041,0.17983383 0.630452,0.51056272 0.1550291,0.20257146 0.2356443,0.44028286 0.082682,0.2377114 0.082682,0.4919592 0,0.5436356 -0.3286618,0.8578281 -0.3286618,0.3141924 -0.9074374,0.3265947 z"
         style="font-size:4.23333px;fill-opacity:1;stroke-width:0.264583"
         id="path833" />
      <path
         d="M 5.8290967,0.96944901 V 1.3291167 Q 5.6678663,1.2464345 5.4942337,1.2050933 5.320601,1.1637522 5.134566,1.1637522 q -0.2831866,0 -0.4258134,0.086816 -0.1405598,0.086816 -0.1405598,0.260449 0,0.1322915 0.1012857,0.2087726 0.1012857,0.074414 0.4072099,0.1426268 l 0.1302245,0.028939 Q 5.6120558,1.9781721 5.7815544,2.1373354 5.95312,2.2944316 5.95312,2.5776182 q 0,0.3224607 -0.2563149,0.5105628 -0.2542478,0.188102 -0.7007318,0.188102 -0.186035,0 -0.3886065,-0.037207 Q 4.4069624,3.2039361 4.1837204,3.1315891 V 2.7388486 q 0.2108397,0.1095539 0.4154782,0.1653644 0.2046385,0.053743 0.4051429,0.053743 0.2687172,0 0.4134111,-0.09095 0.1446939,-0.093017 0.1446939,-0.260449 0,-0.1550292 -0.1054198,-0.2377114 Q 5.3536739,2.2861634 5.0002074,2.2096823 L 4.8679158,2.1786765 Q 4.5144493,2.1042625 4.3573531,1.9513004 4.2002569,1.7962712 4.2002569,1.527554 q 0,-0.3265948 0.2315102,-0.5043615 0.2315102,-0.17776682 0.6573237,-0.17776682 0.2108396,0 0.3968746,0.0310058 0.186035,0.0310058 0.3431313,0.0930175 z"
         style="font-size:4.23333px;fill-opacity:1;stroke-width:0.264583"
         id="path835" />
      <path
         d="m 6.9267032,2.8690731 v 1.227831 H 6.5442979 V 0.90123618 H 6.9267032 V 1.2526356 Q 7.0465924,1.0459301 7.2284933,0.9467114 7.4124612,0.84542568 7.6667091,0.84542568 q 0.4216793,0 0.6841953,0.33486302 0.2645832,0.334863 0.2645832,0.8805656 0,0.5457027 -0.2645832,0.8805657 -0.262516,0.334863 -0.6841953,0.334863 -0.2542479,0 -0.4382158,-0.099219 Q 7.0465924,3.0757786 6.9267032,2.8690731 Z M 8.2206799,2.0608543 q 0,-0.4196122 -0.1736326,-0.6573236 -0.1715656,-0.2397785 -0.4733557,-0.2397785 -0.3017901,0 -0.4754228,0.2397785 -0.1715656,0.2377114 -0.1715656,0.6573236 0,0.4196123 0.1715656,0.6593908 0.1736327,0.2377114 0.4754228,0.2377114 0.3017901,0 0.4733557,-0.2377114 0.1736326,-0.2397785 0.1736326,-0.6593908 z"
         style="font-size:4.23333px;fill-opacity:1;stroke-width:0.264583"
         id="path837" />
      <path
         d="M 9.2459392,0.90123618 H 9.6262774 V 3.2163384 H 9.2459392 Z m 0,-0.901236224703484 H 9.6262774 V 0.4816239 H 9.2459392 Z"
         style="font-size:4.23333px;fill-opacity:1;stroke-width:0.264583"
         id="path839" />
      <path
         d="m 11.763613,1.2567697 q -0.06408,-0.037207 -0.140559,-0.053743 -0.07441,-0.018603 -0.165365,-0.018603 -0.322461,0 -0.496093,0.2108397 Q 10.79003,1.6040351 10.79003,1.9967756 V 3.2163384 H 10.407625 V 0.90123618 H 10.79003 V 1.2609038 q 0.119889,-0.2108396 0.312126,-0.31212535 0.192236,-0.10335277 0.467154,-0.10335277 0.03927,0 0.08682,0.006201 0.04754,0.004134 0.10542,0.0144694 z"
         style="font-size:4.23333px;fill-opacity:1;stroke-width:0.264583"
         id="path841" />
      <path
         d="m 12.162555,0.90123618 h 0.380338 V 3.2163384 h -0.380338 z m 0,-0.901236224703484 h 0.380338 V 0.4816239 h -0.380338 z"
         style="font-size:4.23333px;fill-opacity:1;stroke-width:0.264583"
         id="path843" />
      <path
         d="m 13.714914,0.24391251 v 0.65732367 h 0.783414 V 1.1968251 h -0.783414 v 1.2567698 q 0,0.2831866 0.07648,0.3638018 0.07855,0.080615 0.316259,0.080615 h 0.390674 v 0.3183266 h -0.390674 q -0.440282,0 -0.607714,-0.1632974 Q 13.332509,2.8876766 13.332509,2.4535949 V 1.1968251 H 13.053456 V 0.90123618 h 0.279053 V 0.24391251 Z"
         style="font-size:4.23333px;fill-opacity:1;stroke-width:0.264583"
         id="path845" />
      <path
         d="M 16.664602,0.99011957 V 1.3456531 q -0.16123,-0.088883 -0.324528,-0.1322915 -0.16123,-0.045475 -0.326595,-0.045475 -0.370003,0 -0.574641,0.2356444 -0.204639,0.2335773 -0.204639,0.6573236 0,0.4237464 0.204639,0.6593908 0.204638,0.2335772 0.574641,0.2335772 0.165365,0 0.326595,-0.043408 0.163298,-0.045475 0.324528,-0.1343586 V 3.127455 q -0.159163,0.074414 -0.330729,0.111621 -0.169499,0.037207 -0.361735,0.037207 -0.522965,0 -0.830956,-0.3286618 -0.307991,-0.3286619 -0.307991,-0.8867669 0,-0.5663732 0.310058,-0.8909009 0.312125,-0.32452772 0.853694,-0.32452772 0.1757,0 0.343131,0.037207 0.167432,0.0351399 0.324528,0.10748689 z"
         style="font-size:4.23333px;fill-opacity:1;stroke-width:0.264583"
         id="path847" />
      <path
         d="m 18.667579,1.2567697 q -0.06408,-0.037207 -0.140559,-0.053743 -0.07441,-0.018603 -0.165365,-0.018603 -0.322461,0 -0.496093,0.2108397 -0.171566,0.2087726 -0.171566,0.6015131 V 3.2163384 H 17.311591 V 0.90123618 h 0.382405 V 1.2609038 q 0.119889,-0.2108396 0.312126,-0.31212535 0.192236,-0.10335277 0.467154,-0.10335277 0.03927,0 0.08682,0.006201 0.04754,0.004134 0.10542,0.0144694 z"
         style="font-size:4.23333px;fill-opacity:1;stroke-width:0.264583"
         id="path849" />
      <path
         d="m 19.870604,1.1678863 q -0.305924,0 -0.483691,0.2397785 -0.177767,0.2377114 -0.177767,0.6531895 0,0.4154782 0.1757,0.6552567 0.177767,0.2377113 0.485758,0.2377113 0.303857,0 0.481624,-0.2397784 0.177767,-0.2397784 0.177767,-0.6531896 0,-0.411344 -0.177767,-0.6511225 -0.177767,-0.2418455 -0.481624,-0.2418455 z m 0,-0.32246062 q 0.496094,0 0.77928,0.32246062 0.283187,0.3224607 0.283187,0.892968 0,0.5684403 -0.283187,0.892968 -0.283186,0.3224607 -0.77928,0.3224607 -0.49816,0 -0.781347,-0.3224607 -0.281119,-0.3245277 -0.281119,-0.892968 0,-0.5705073 0.281119,-0.892968 0.283187,-0.32246062 0.781347,-0.32246062 z"
         style="font-size:4.23333px;fill-opacity:1;stroke-width:0.264583"
         id="path851" />
      <path
         d="M 23.22957,0.99011957 V 1.3456531 q -0.16123,-0.088883 -0.324528,-0.1322915 -0.16123,-0.045475 -0.326594,-0.045475 -0.370003,0 -0.574642,0.2356444 -0.204638,0.2335773 -0.204638,0.6573236 0,0.4237464 0.204638,0.6593908 0.204639,0.2335772 0.574642,0.2335772 0.165364,0 0.326594,-0.043408 Q 23.06834,2.864939 23.22957,2.7760556 V 3.127455 q -0.159163,0.074414 -0.330729,0.111621 -0.169498,0.037207 -0.361735,0.037207 -0.522965,0 -0.830956,-0.3286618 -0.307991,-0.3286619 -0.307991,-0.8867669 0,-0.5663732 0.310058,-0.8909009 0.312126,-0.32452772 0.853694,-0.32452772 0.1757,0 0.343131,0.037207 0.167432,0.0351399 0.324528,0.10748689 z"
         style="font-size:4.23333px;fill-opacity:1;stroke-width:0.264583"
         id="path853" />
      <path
         d="m 23.98818,2.6913063 h 0.436149 V 3.2163384 H 23.98818 Z m 0,-1.6639797 h 0.436149 V 1.5523587 H 23.98818 Z"
         style="font-size:4.23333px;fill-opacity:1;stroke-width:0.264583"
         id="path855" />
      <path
         d="M 26.793174,0.96944901 V 1.3291167 q -0.161231,-0.082682 -0.334863,-0.1240234 -0.173633,-0.041341 -0.359668,-0.041341 -0.283187,0 -0.425813,0.086816 -0.14056,0.086816 -0.14056,0.260449 0,0.1322915 0.101285,0.2087726 0.101286,0.074414 0.40721,0.1426268 l 0.130225,0.028939 q 0.405143,0.086816 0.574641,0.2459796 0.171566,0.1570962 0.171566,0.4402828 0,0.3224607 -0.256315,0.5105628 -0.254248,0.188102 -0.700732,0.188102 -0.186035,0 -0.388606,-0.037207 -0.200505,-0.03514 -0.423747,-0.1074869 V 2.7388486 q 0.21084,0.1095539 0.415479,0.1653644 0.204638,0.053743 0.405142,0.053743 0.268718,0 0.413412,-0.09095 0.144693,-0.093017 0.144693,-0.260449 0,-0.1550292 -0.105419,-0.2377114 -0.103353,-0.082682 -0.45682,-0.1591633 L 25.831993,2.1786765 Q 25.478526,2.1042625 25.32143,1.9513004 25.164334,1.7962712 25.164334,1.527554 q 0,-0.3265948 0.23151,-0.5043615 0.23151,-0.17776682 0.657324,-0.17776682 0.210839,0 0.396874,0.0310058 0.186035,0.0310058 0.343132,0.0930175 z"
         style="font-size:4.23333px;fill-opacity:1;stroke-width:0.264583"
         id="path857" />
      <path
         d="m 27.890781,2.8690731 v 1.227831 H 27.508376 V 0.90123618 h 0.382405 V 1.2526356 q 0.119889,-0.2067055 0.30179,-0.3059242 0.183968,-0.10128572 0.438216,-0.10128572 0.421679,0 0.684195,0.33486302 0.264584,0.334863 0.264584,0.8805656 0,0.5457027 -0.264584,0.8805657 -0.262516,0.334863 -0.684195,0.334863 -0.254248,0 -0.438216,-0.099219 -0.181901,-0.1012857 -0.30179,-0.3079912 z m 1.293977,-0.8082188 q 0,-0.4196122 -0.173633,-0.6573236 -0.171565,-0.2397785 -0.473355,-0.2397785 -0.301791,0 -0.475423,0.2397785 -0.171566,0.2377114 -0.171566,0.6573236 0,0.4196123 0.171566,0.6593908 0.173632,0.2377114 0.475423,0.2377114 0.30179,0 0.473355,-0.2377114 0.173633,-0.2397785 0.173633,-0.6593908 z"
         style="font-size:4.23333px;fill-opacity:1;stroke-width:0.264583"
         id="path859" />
      <path
         d="m 30.210017,0.90123618 h 0.380338 V 3.2163384 h -0.380338 z m 0,-0.901236224703484 h 0.380338 V 0.4816239 h -0.380338 z"
         style="font-size:4.23333px;fill-opacity:1;stroke-width:0.264583"
         id="path861" />
      <path
         d="m 32.727691,1.2567697 q -0.06408,-0.037207 -0.140559,-0.053743 -0.07441,-0.018603 -0.165365,-0.018603 -0.322461,0 -0.496093,0.2108397 -0.171566,0.2087726 -0.171566,0.6015131 V 3.2163384 H 31.371703 V 0.90123618 h 0.382405 V 1.2609038 q 0.119889,-0.2108396 0.312126,-0.31212535 0.192236,-0.10335277 0.467154,-0.10335277 0.03927,0 0.08682,0.006201 0.04754,0.004134 0.10542,0.0144694 z"
         style="font-size:4.23333px;fill-opacity:1;stroke-width:0.264583"
         id="path863" />
      <path
         d="m 33.126634,0.90123618 h 0.380338 V 3.2163384 h -0.380338 z m 0,-0.901236224703484 h 0.380338 V 0.4816239 h -0.380338 z"
         style="font-size:4.23333px;fill-opacity:1;stroke-width:0.264583"
         id="path865" />
      <path
         d="m 34.678993,0.24391251 v 0.65732367 h 0.783414 V 1.1968251 h -0.783414 v 1.2567698 q 0,0.2831866 0.07648,0.3638018 0.07855,0.080615 0.316259,0.080615 h 0.390674 v 0.3183266 h -0.390674 q -0.440282,0 -0.607714,-0.1632974 Q 34.296588,2.8876766 34.296588,2.4535949 V 1.1968251 H 34.017535 V 0.90123618 h 0.279053 V 0.24391251 Z"
         style="font-size:4.23333px;fill-opacity:1;stroke-width:0.264583"
         id="path867" />
      <path
         d="M 37.628679,0.99011957 V 1.3456531 q -0.16123,-0.088883 -0.324528,-0.1322915 -0.16123,-0.045475 -0.326595,-0.045475 -0.370003,0 -0.574641,0.2356444 -0.204639,0.2335773 -0.204639,0.6573236 0,0.4237464 0.204639,0.6593908 0.204638,0.2335772 0.574641,0.2335772 0.165365,0 0.326595,-0.043408 0.163298,-0.045475 0.324528,-0.1343586 V 3.127455 q -0.159163,0.074414 -0.330729,0.111621 -0.169499,0.037207 -0.361735,0.037207 -0.522965,0 -0.830956,-0.3286618 -0.307991,-0.3286619 -0.307991,-0.8867669 0,-0.5663732 0.310058,-0.8909009 0.312125,-0.32452772 0.853694,-0.32452772 0.1757,0 0.343131,0.037207 0.167432,0.0351399 0.324528,0.10748689 z"
         style="font-size:4.23333px;fill-opacity:1;stroke-width:0.264583"
         id="path869" />
      <path
         d="m 39.631658,1.2567697 q -0.06408,-0.037207 -0.14056,-0.053743 -0.07441,-0.018603 -0.165364,-0.018603 -0.322461,0 -0.496093,0.2108397 -0.171566,0.2087726 -0.171566,0.6015131 V 3.2163384 H 38.27567 V 0.90123618 h 0.382405 V 1.2609038 q 0.119889,-0.2108396 0.312125,-0.31212535 0.192237,-0.10335277 0.467155,-0.10335277 0.03927,0 0.08682,0.006201 0.04754,0.004134 0.10542,0.0144694 z"
         style="font-size:4.23333px;fill-opacity:1;stroke-width:0.264583"
         id="path871" />
      <path
         d="m 40.834683,1.1678863 q -0.305924,0 -0.483691,0.2397785 -0.177767,0.2377114 -0.177767,0.6531895 0,0.4154782 0.1757,0.6552567 0.177767,0.2377113 0.485758,0.2377113 0.303857,0 0.481624,-0.2397784 0.177767,-0.2397784 0.177767,-0.6531896 0,-0.411344 -0.177767,-0.6511225 Q 41.13854,1.1678863 40.834683,1.1678863 Z m 0,-0.32246062 q 0.496093,0 0.77928,0.32246062 0.283187,0.3224607 0.283187,0.892968 0,0.5684403 -0.283187,0.892968 -0.283187,0.3224607 -0.77928,0.3224607 -0.49816,0 -0.781347,-0.3224607 -0.281119,-0.3245277 -0.281119,-0.892968 0,-0.5705073 0.281119,-0.892968 0.283187,-0.32246062 0.781347,-0.32246062 z"
         style="font-size:4.23333px;fill-opacity:1;stroke-width:0.264583"
         id="path873" />
      <path
         d="M 44.193647,0.99011957 V 1.3456531 q -0.16123,-0.088883 -0.324528,-0.1322915 -0.16123,-0.045475 -0.326594,-0.045475 -0.370003,0 -0.574642,0.2356444 -0.204638,0.2335773 -0.204638,0.6573236 0,0.4237464 0.204638,0.6593908 0.204639,0.2335772 0.574642,0.2335772 0.165364,0 0.326594,-0.043408 0.163298,-0.045475 0.324528,-0.1343586 V 3.127455 q -0.159163,0.074414 -0.330729,0.111621 -0.169498,0.037207 -0.361735,0.037207 -0.522965,0 -0.830956,-0.3286618 -0.307991,-0.3286619 -0.307991,-0.8867669 0,-0.5663732 0.310058,-0.8909009 0.312126,-0.32452772 0.853694,-0.32452772 0.1757,0 0.343131,0.037207 0.167432,0.0351399 0.324528,0.10748689 z"
         style="font-size:4.23333px;fill-opacity:1;stroke-width:0.264583"
         id="path875" />
      <path
         d="m 44.908851,2.6913063 h 0.436148 v 0.5250321 h -0.436148 z"
         style="font-size:4.23333px;fill-opacity:1;stroke-width:0.264583"
         id="path877" />
      <path
         d="M 47.724181,1.2526356 V -4.4703484e-8 h 0.380338 V 3.2163384 H 47.724181 V 2.8690731 q -0.119889,0.2067055 -0.303857,0.3079912 -0.181901,0.099219 -0.438216,0.099219 -0.419612,0 -0.684196,-0.334863 -0.262516,-0.334863 -0.262516,-0.8805657 0,-0.5457026 0.262516,-0.8805656 0.264584,-0.33486302 0.684196,-0.33486302 0.256315,0 0.438216,0.10128572 0.183968,0.0992187 0.303857,0.3059242 z m -1.296044,0.8082187 q 0,0.4196123 0.171566,0.6593908 0.173632,0.2377114 0.475422,0.2377114 0.30179,0 0.475423,-0.2377114 0.173633,-0.2397785 0.173633,-0.6593908 0,-0.4196122 -0.173633,-0.6573236 -0.173633,-0.2397785 -0.475423,-0.2397785 -0.30179,0 -0.475422,0.2397785 -0.171566,0.2377114 -0.171566,0.6573236 z"
         style="font-size:4.23333px;fill-opacity:1;stroke-width:0.264583"
         id="path879" />
      <path
         d="m 50.868172,1.9637027 v 0.186035 h -1.748729 q 0.02481,0.3927406 0.235644,0.5994461 0.212907,0.2046385 0.591178,0.2046385 0.219108,0 0.423747,-0.053743 0.206705,-0.053743 0.409277,-0.1612303 v 0.3596676 q -0.204639,0.086816 -0.419613,0.1322916 -0.214973,0.045475 -0.436148,0.045475 -0.553971,0 -0.878499,-0.3224607 -0.322461,-0.3224606 -0.322461,-0.8722974 0,-0.5684403 0.305925,-0.9012362 0.307991,-0.33486302 0.828889,-0.33486302 0.467154,0 0.737939,0.30179012 0.272851,0.299723 0.272851,0.8164869 z m -0.380338,-0.111621 q -0.0041,-0.3121254 -0.1757,-0.4981604 -0.169499,-0.186035 -0.450618,-0.186035 -0.318327,0 -0.510563,0.1798339 -0.190169,0.1798338 -0.219108,0.5064286 z"
         style="font-size:4.23333px;fill-opacity:1;stroke-width:0.264583"
         id="path881" />
      <path
         d="m 1.2960438,6.9746587 q 0,0.2955889 0.146761,0.4650875 0.1467609,0.1674315 0.4030758,0.1674315 0.2542478,0 0.3989417,-0.1694986 0.146761,-0.1694985 0.146761,-0.4630204 0,-0.2893878 -0.148828,-0.4588863 -0.148828,-0.1715656 -0.4010088,-0.1715656 -0.2501137,0 -0.3989417,0.1694985 -0.146761,0.1694986 -0.146761,0.4609534 z m 1.1265453,0.6180496 q -0.1240233,0.1591633 -0.2852537,0.2356443 -0.1591632,0.074414 -0.37207,0.074414 -0.3555335,0 -0.5787755,-0.2563148 -0.22117495,-0.258382 -0.22117495,-0.6717931 0,-0.4134111 0.22324195,-0.6717931 0.223242,-0.2583819 0.5767085,-0.2583819 0.2129068,0 0.3741371,0.078548 0.1612303,0.076481 0.2831866,0.2335773 V 6.0858248 h 0.295589 v 1.5213529 q 0.3017901,-0.045475 0.4712886,-0.2749184 0.1715656,-0.2315102 0.1715656,-0.597379 0,-0.221175 -0.066146,-0.4154782 Q 3.2308078,6.1250989 3.0985163,5.9597344 2.8835425,5.6889501 2.5734842,5.5463233 2.2654929,5.4016294 1.9016911,5.4016294 q -0.2542478,0 -0.4878251,0.068213 Q 1.1802887,5.535988 0.98185139,5.6682796 0.65732367,5.8791193 0.47335573,6.2222505 0.29145484,6.5633146 0.29145484,6.9622564 q 0,0.3286618 0.11782216,0.6159825 0.11988923,0.2873207 0.34519828,0.5064286 0.21704083,0.2149738 0.50229452,0.3265948 0.2852536,0.1136881 0.6097814,0.1136881 0.2666501,0 0.522965,-0.09095 0.258382,-0.088883 0.4733557,-0.2563149 l 0.186035,0.2294432 Q 2.790525,8.6076326 2.4846008,8.7130524 2.1807436,8.8205393 1.8665512,8.8205393 q -0.3824053,0 -0.7214024,-0.1364257 Q 0.80615167,8.549755 0.54156856,8.2913731 0.27698545,8.0329911 0.13849273,7.693994 0,7.3529299 0,6.9622564 0,6.5860523 0.14055978,6.2449881 0.28111956,5.9039239 0.54156856,5.645542 0.80821873,5.3830259 1.1575511,5.2445332 1.5068835,5.1039734 1.897557,5.1039734 q 0.4382158,0 0.8123528,0.1798339 0.3762041,0.1798338 0.630452,0.5105627 0.1550291,0.2025714 0.2356443,0.4402828 0.082682,0.2377114 0.082682,0.4919592 0,0.5436356 -0.3286618,0.8578281 -0.3286618,0.3141924 -0.9074374,0.3265948 z"
         style="font-size:4.23333px;fill-opacity:1;stroke-width:0.264583"
         id="path883" />
      <path
         d="m 4.5805951,6.9291835 q 0,0.4196123 0.1715656,0.6593907 0.1736327,0.2377114 0.4754228,0.2377114 0.3017901,0 0.4754228,-0.2377114 0.1736326,-0.2397784 0.1736326,-0.6593907 0,-0.4196123 -0.1736326,-0.6573237 -0.1736327,-0.2397784 -0.4754228,-0.2397784 -0.3017901,0 -0.4754228,0.2397784 Q 4.5805951,6.5095712 4.5805951,6.9291835 Z M 5.8766389,7.7374022 Q 5.7567497,7.9441078 5.5727818,8.0453935 5.3908809,8.1446121 5.134566,8.1446121 q -0.4196123,0 -0.6841954,-0.334863 -0.262516,-0.334863 -0.262516,-0.8805656 0,-0.5457027 0.262516,-0.8805657 0.2645831,-0.334863 0.6841954,-0.334863 0.2563149,0 0.4382158,0.1012857 0.1839679,0.099219 0.3038571,0.3059243 V 5.7695653 H 6.2569772 V 8.9652332 H 5.8766389 Z"
         style="font-size:4.23333px;fill-opacity:1;stroke-width:0.264583"
         id="path885" />
      <path
         d="m 8.5638109,6.9002447 q 0,-0.4134111 -0.1715656,-0.6407872 -0.1694986,-0.2273761 -0.4774899,-0.2273761 -0.3059242,0 -0.4774898,0.2273761 -0.1694986,0.2273761 -0.1694986,0.6407872 0,0.4113441 0.1694986,0.6387202 0.1715656,0.2273761 0.4774898,0.2273761 0.3079913,0 0.4774899,-0.2273761 0.1715656,-0.2273761 0.1715656,-0.6387202 z m 0.3803382,0.8971021 q 0,0.5911779 -0.2625161,0.8784986 -0.262516,0.2893878 -0.8040846,0.2893878 -0.2005044,0 -0.3782711,-0.031006 Q 7.3215105,8.9052886 7.154079,8.8432769 V 8.473274 q 0.1674315,0.09095 0.3307289,0.1343586 0.1632974,0.043408 0.3327959,0.043408 0.3741371,0 0.5601721,-0.1963703 0.186035,-0.1943032 0.186035,-0.5891109 V 7.6774576 Q 8.4459887,7.8820961 8.2620208,7.9833818 8.0780528,8.0846675 7.8217379,8.0846675 q -0.4258134,0 -0.6862624,-0.3245277 -0.260449,-0.3245277 -0.260449,-0.8598951 0,-0.5374344 0.260449,-0.8619622 0.260449,-0.3245277 0.6862624,-0.3245277 0.2563149,0 0.4402829,0.1012857 0.1839679,0.1012858 0.3017901,0.3059243 V 5.7695653 h 0.3803382 z"
         style="font-size:4.23333px;fill-opacity:1;stroke-width:0.264583"
         id="path887" />
      <path
         d="M 9.8247145,7.5596354 H 10.260863 V 8.0846675 H 9.8247145 Z m 0,-1.6639797 H 10.260863 V 6.4206878 H 9.8247145 Z"
         style="font-size:4.23333px;fill-opacity:1;stroke-width:0.264583"
         id="path889" />
      <path
         d="m 12.629709,5.8377781 v 0.3596677 q -0.16123,-0.082682 -0.334863,-0.1240233 -0.173633,-0.041341 -0.359668,-0.041341 -0.283186,0 -0.425813,0.086816 -0.14056,0.086816 -0.14056,0.260449 0,0.1322916 0.101286,0.2087726 0.101286,0.074414 0.40721,0.1426268 l 0.130224,0.028939 q 0.405143,0.086816 0.574642,0.2459796 0.171565,0.1570963 0.171565,0.4402829 0,0.3224606 -0.256314,0.5105627 -0.254248,0.188102 -0.700732,0.188102 -0.186035,0 -0.388607,-0.037207 -0.200504,-0.03514 -0.423746,-0.1074868 V 7.6071777 q 0.21084,0.1095539 0.415478,0.1653644 0.204639,0.053744 0.405143,0.053744 0.268717,0 0.413411,-0.09095 0.144694,-0.093018 0.144694,-0.260449 0,-0.1550291 -0.10542,-0.2377113 Q 12.154286,7.1544925 11.80082,7.0780115 L 11.668528,7.0470056 Q 11.315062,6.9725916 11.157966,6.8196295 11.000869,6.6646004 11.000869,6.3958831 q 0,-0.3265947 0.231511,-0.5043615 0.23151,-0.1777668 0.657323,-0.1777668 0.21084,0 0.396875,0.031006 0.186035,0.031006 0.343131,0.093018 z"
         style="font-size:4.23333px;fill-opacity:1;stroke-width:0.264583"
         id="path891" />
      <path
         d="M 13.320106,7.171029 V 5.7695653 h 0.380338 v 1.3869943 q 0,0.3286618 0.128157,0.4940263 0.128158,0.1632974 0.384473,0.1632974 0.307991,0 0.485758,-0.1963703 0.179834,-0.1963703 0.179834,-0.5353674 V 5.7695653 h 0.380338 V 8.0846675 H 14.878666 V 7.729134 q -0.138493,0.2108396 -0.322461,0.3141924 -0.181901,0.1012857 -0.423746,0.1012857 -0.398942,0 -0.605648,-0.2480466 Q 13.320106,7.6485188 13.320106,7.171029 Z m 0.957046,-1.4572742 z"
         style="font-size:4.23333px;fill-opacity:1;stroke-width:0.264583"
         id="path893" />
      <path
         d="m 16.410354,7.7374022 v 1.227831 H 16.027949 V 5.7695653 h 0.382405 v 0.3513995 q 0.11989,-0.2067056 0.30179,-0.3059243 0.183968,-0.1012857 0.438216,-0.1012857 0.42168,0 0.684196,0.334863 0.264583,0.334863 0.264583,0.8805657 0,0.5457026 -0.264583,0.8805656 -0.262516,0.334863 -0.684196,0.334863 -0.254248,0 -0.438216,-0.099219 -0.1819,-0.1012857 -0.30179,-0.3079913 z m 1.293977,-0.8082187 q 0,-0.4196123 -0.173633,-0.6573237 -0.171565,-0.2397784 -0.473355,-0.2397784 -0.30179,0 -0.475423,0.2397784 -0.171566,0.2377114 -0.171566,0.6573237 0,0.4196123 0.171566,0.6593907 0.173633,0.2377114 0.475423,0.2377114 0.30179,0 0.473355,-0.2377114 0.173633,-0.2397784 0.173633,-0.6593907 z"
         style="font-size:4.23333px;fill-opacity:1;stroke-width:0.264583"
         id="path895" />
      <path
         d="m 20.70983,6.8320319 v 0.186035 h -1.748729 q 0.0248,0.3927405 0.235644,0.5994461 0.212907,0.2046385 0.591178,0.2046385 0.219108,0 0.423746,-0.053744 0.206706,-0.053743 0.409277,-0.1612303 v 0.3596677 q -0.204638,0.086816 -0.419612,0.1322915 -0.214974,0.045475 -0.436149,0.045475 -0.553971,0 -0.878498,-0.3224606 -0.322461,-0.3224607 -0.322461,-0.8722975 0,-0.5684402 0.305924,-0.9012362 0.307991,-0.334863 0.828889,-0.334863 0.467155,0 0.737939,0.3017901 0.272852,0.2997231 0.272852,0.816487 z m -0.380339,-0.111621 q -0.0041,-0.3121254 -0.175699,-0.4981604 -0.169499,-0.186035 -0.450618,-0.186035 -0.318327,0 -0.510563,0.1798338 -0.190169,0.1798338 -0.219108,0.5064286 z"
         style="font-size:4.23333px;fill-opacity:1;stroke-width:0.264583"
         id="path897" />
      <path
         d="m 22.6756,6.1250989 q -0.06408,-0.037207 -0.14056,-0.053744 -0.07441,-0.018604 -0.165365,-0.018604 -0.32246,0 -0.496093,0.2108397 -0.171565,0.2087726 -0.171565,0.6015132 V 8.0846675 H 21.319611 V 5.7695653 h 0.382406 V 6.129233 q 0.119889,-0.2108397 0.312125,-0.3121254 0.192236,-0.1033528 0.467154,-0.1033528 0.03927,0 0.08682,0.0062 0.04754,0.00413 0.10542,0.014469 z"
         style="font-size:4.23333px;fill-opacity:1;stroke-width:0.264583"
         id="path899" />
      <path
         d="m 24.647569,5.8584487 v 0.3555336 q -0.16123,-0.088883 -0.324527,-0.1322916 -0.161231,-0.045475 -0.326595,-0.045475 -0.370003,0 -0.574642,0.2356443 -0.204638,0.2335773 -0.204638,0.6573237 0,0.4237464 0.204638,0.6593907 0.204639,0.2335773 0.574642,0.2335773 0.165364,0 0.326595,-0.043408 0.163297,-0.045475 0.324527,-0.1343586 v 0.3513994 q -0.159163,0.074414 -0.330729,0.111621 -0.169498,0.037207 -0.361734,0.037207 -0.522965,0 -0.830957,-0.3286618 -0.307991,-0.3286618 -0.307991,-0.8867668 0,-0.5663732 0.310058,-0.890901 0.312126,-0.3245277 0.853694,-0.3245277 0.1757,0 0.343132,0.037207 0.167431,0.03514 0.324527,0.1074869 z"
         style="font-size:4.23333px;fill-opacity:1;stroke-width:0.264583"
         id="path901" />
      <path
         d="m 26.361159,6.9209153 q -0.460953,0 -0.63872,0.1054198 -0.177767,0.1054198 -0.177767,0.3596677 0,0.2025714 0.132292,0.3224606 0.134358,0.1178222 0.363801,0.1178222 0.31626,0 0.506429,-0.223242 Q 26.73943,7.3777345 26.73943,7.0056645 V 6.9209153 Z M 27.119768,6.763819 V 8.0846675 H 26.73943 V 7.7332681 q -0.130224,0.2108397 -0.324528,0.3121254 -0.194303,0.099219 -0.475422,0.099219 -0.355534,0 -0.566374,-0.1984373 -0.208772,-0.2005044 -0.208772,-0.5353674 0,-0.3906735 0.260449,-0.5891108 0.262516,-0.1984373 0.781347,-0.1984373 h 0.5333 v -0.037207 q 0,-0.2625161 -0.173633,-0.4051429 -0.171565,-0.1446939 -0.483691,-0.1446939 -0.198437,0 -0.386539,0.047542 Q 25.507465,6.1313 25.333832,6.2263846 V 5.8749851 q 0.208773,-0.080615 0.405143,-0.1198892 0.19637,-0.041341 0.382405,-0.041341 0.502295,0 0.750342,0.260449 0.248046,0.260449 0.248046,0.7896152 z"
         style="font-size:4.23333px;fill-opacity:1;stroke-width:0.264583"
         id="path903" />
      <path
         d="m 29.565097,6.9291835 q 0,-0.4196123 -0.173633,-0.6573237 -0.171566,-0.2397784 -0.473356,-0.2397784 -0.30179,0 -0.475423,0.2397784 -0.171565,0.2377114 -0.171565,0.6573237 0,0.4196123 0.171565,0.6593907 0.173633,0.2377114 0.475423,0.2377114 0.30179,0 0.473356,-0.2377114 0.173633,-0.2397784 0.173633,-0.6593907 z M 28.27112,6.1209648 q 0.119889,-0.2067056 0.30179,-0.3059243 0.183968,-0.1012857 0.438216,-0.1012857 0.421679,0 0.684195,0.334863 0.264583,0.334863 0.264583,0.8805657 0,0.5457026 -0.264583,0.8805656 -0.262516,0.334863 -0.684195,0.334863 -0.254248,0 -0.438216,-0.099219 Q 28.391009,7.9441078 28.27112,7.7374022 V 8.0846675 H 27.888715 V 4.8683291 h 0.382405 z"
         style="font-size:4.23333px;fill-opacity:1;stroke-width:0.264583"
         id="path905" />
      <path
         d="m 30.590356,4.8683291 h 0.380338 v 3.2163384 h -0.380338 z"
         style="font-size:4.23333px;fill-opacity:1;stroke-width:0.264583"
         id="path907" />
      <path
         d="m 33.746748,6.8320319 v 0.186035 h -1.748729 q 0.02481,0.3927405 0.235645,0.5994461 0.212906,0.2046385 0.591177,0.2046385 0.219108,0 0.423747,-0.053744 0.206705,-0.053743 0.409277,-0.1612303 v 0.3596677 q -0.204639,0.086816 -0.419612,0.1322915 -0.214974,0.045475 -0.436149,0.045475 -0.553971,0 -0.878499,-0.3224606 -0.32246,-0.3224607 -0.32246,-0.8722975 0,-0.5684402 0.305924,-0.9012362 0.307991,-0.334863 0.828889,-0.334863 0.467155,0 0.737939,0.3017901 0.272851,0.2997231 0.272851,0.816487 z M 33.36641,6.7204109 q -0.0041,-0.3121254 -0.1757,-0.4981604 -0.169498,-0.186035 -0.450618,-0.186035 -0.318326,0 -0.510563,0.1798338 -0.190169,0.1798338 -0.219107,0.5064286 z"
         style="font-size:4.23333px;fill-opacity:1;stroke-width:0.264583"
         id="path909" />
      <path
         d="m 34.424743,7.5596354 h 0.436148 v 0.5250321 h -0.436148 z"
         style="font-size:4.23333px;fill-opacity:1;stroke-width:0.264583"
         id="path911" />
      <path
         d="m 36.613755,6.0362155 q -0.305924,0 -0.483691,0.2397784 -0.177767,0.2377114 -0.177767,0.6531896 0,0.4154781 0.1757,0.6552566 0.177767,0.2377114 0.485758,0.2377114 0.303857,0 0.481624,-0.2397785 0.177767,-0.2397784 0.177767,-0.6531895 0,-0.4113441 -0.177767,-0.6511225 -0.177767,-0.2418455 -0.481624,-0.2418455 z m 0,-0.3224607 q 0.496093,0 0.77928,0.3224607 0.283187,0.3224606 0.283187,0.892968 0,0.5684403 -0.283187,0.892968 -0.283187,0.3224606 -0.77928,0.3224606 -0.49816,0 -0.781347,-0.3224606 -0.28112,-0.3245277 -0.28112,-0.892968 0,-0.5705074 0.28112,-0.892968 0.283187,-0.3224607 0.781347,-0.3224607 z"
         style="font-size:4.23333px;fill-opacity:1;stroke-width:0.264583"
         id="path913" />
      <path
         d="M 40.231101,6.687338 V 8.0846675 H 39.850763 V 6.6997403 q 0,-0.3286618 -0.128158,-0.4919592 -0.128157,-0.1632974 -0.384472,-0.1632974 -0.307991,0 -0.485758,0.1963703 -0.177767,0.1963703 -0.177767,0.5353674 V 8.0846675 H 38.292203 V 5.7695653 h 0.382405 V 6.129233 q 0.136426,-0.2087726 0.320394,-0.3121254 0.186035,-0.1033528 0.42788,-0.1033528 0.398942,0 0.60358,0.2480467 0.204639,0.2459796 0.204639,0.7255365 z"
         style="font-size:4.23333px;fill-opacity:1;stroke-width:0.264583"
         id="path915" />
      <path
         d="m 40.989713,4.8683291 h 0.380338 v 3.2163384 h -0.380338 z"
         style="font-size:4.23333px;fill-opacity:1;stroke-width:0.264583"
         id="path917" />
    </g>
  </g>
</svg>
