<?xml version="1.0" encoding="UTF-8" standalone="no"?>
<svg
   width="68.773003mm"
   height="4.0970001mm"
   viewBox="0 0 68.773003 4.0970001"
   version="1.1"
   id="svg927"
   xmlns="http://www.w3.org/2000/svg"
   xmlns:svg="http://www.w3.org/2000/svg"
   xmlns:rdf="http://www.w3.org/1999/02/22-rdf-syntax-ns#"
   xmlns:cc="http://creativecommons.org/ns#"
   xmlns:dc="http://purl.org/dc/elements/1.1/">
  <defs
     id="defs921" />
  <metadata
     id="metadata924">
    <rdf:RDF>
      <cc:Work
         rdf:about="">
        <dc:format>image/svg+xml</dc:format>
        <dc:type
           rdf:resource="http://purl.org/dc/dcmitype/StillImage" />
      </cc:Work>
    </rdf:RDF>
  </metadata>
  <g
     id="layer1">
    <g
       aria-label="privacy.schildichat@spiritcroc.de"
       id="text1492"
       style="font-size:4.23333px;line-height:1.15;letter-spacing:0px;word-spacing:0px;fill:#ffffff;stroke-width:0.264583">
      <path
         d="m 0.48782511,2.8690731 v 1.227831 H 0.10541984 V 0.90123618 H 0.48782511 V 1.2526356 Q 0.60771434,1.0459301 0.78961523,0.9467114 0.97358317,0.84542568 1.227831,0.84542568 q 0.4216793,0 0.6841954,0.33486302 0.2645831,0.334863 0.2645831,0.8805656 0,0.5457027 -0.2645831,0.8805657 -0.2625161,0.334863 -0.6841954,0.334863 -0.25424783,0 -0.43821577,-0.099219 Q 0.60771434,3.0757786 0.48782511,2.8690731 Z M 1.7818019,2.0608543 q 0,-0.4196122 -0.1736327,-0.6573236 -0.1715656,-0.2397785 -0.4733557,-0.2397785 -0.30179011,0 -0.47542277,0.2397785 -0.17156562,0.2377114 -0.17156562,0.6573236 0,0.4196123 0.17156562,0.6593908 0.17363266,0.2377114 0.47542277,0.2377114 0.3017901,0 0.4733557,-0.2377114 0.1736327,-0.2397785 0.1736327,-0.6593908 z"
         id="path16440" />
      <path
         d="m 4.1485805,1.2567697 q -0.064079,-0.037207 -0.1405598,-0.053743 -0.074414,-0.018603 -0.1653645,-0.018603 -0.3224606,0 -0.4960933,0.2108397 Q 3.1749973,1.6040351 3.1749973,1.9967756 V 3.2163384 H 2.792592 V 0.90123618 H 3.1749973 V 1.2609038 Q 3.2948865,1.0500642 3.4871227,0.94877845 3.6793588,0.84542568 3.9542772,0.84542568 q 0.039274,0 0.086816,0.006201 0.047542,0.004134 0.1054198,0.0144694 z"
         id="path16442" />
      <path
         d="M 4.547522,0.90123618 H 4.9278603 V 3.2163384 H 4.547522 Z m 0,-0.901236224703484 H 4.9278603 V 0.4816239 H 4.547522 Z"
         id="path16444" />
      <path
         d="M 5.4508253,0.90123618 H 5.8539011 L 6.5773706,2.8442684 7.30084,0.90123618 H 7.7039159 L 6.8357525,3.2163384 H 6.3189886 Z"
         id="path16446" />
      <path
         d="m 9.2810798,2.0525861 q -0.4609534,0 -0.6387201,0.1054199 -0.1777668,0.1054198 -0.1777668,0.3596676 0,0.2025715 0.1322915,0.3224607 0.1343587,0.1178222 0.3638018,0.1178222 0.3162595,0 0.5064286,-0.223242 Q 9.659351,2.5094054 9.659351,2.1373354 V 2.0525861 Z M 10.039689,1.8954899 V 3.2163384 H 9.659351 V 2.864939 Q 9.5291265,3.0757786 9.3348233,3.1770643 9.1405201,3.276283 8.8594005,3.276283 q -0.3555336,0 -0.5663732,-0.1984373 -0.2087726,-0.2005044 -0.2087726,-0.5353674 0,-0.3906735 0.260449,-0.5891108 0.262516,-0.1984374 0.781347,-0.1984374 H 9.659351 v -0.037207 q 0,-0.262516 -0.1736327,-0.4051429 -0.1715656,-0.1446939 -0.483691,-0.1446939 -0.1984373,0 -0.3865394,0.047542 -0.188102,0.047542 -0.3617347,0.1426269 V 1.006656 q 0.2087726,-0.0806152 0.4051429,-0.11988921 0.1963703,-0.0413411 0.3824053,-0.0413411 0.5022945,0 0.7503412,0.26044902 0.2480464,0.260449 0.2480464,0.7896152 z"
         id="path16448" />
      <path
         d="M 12.48915,0.99011957 V 1.3456531 q -0.161231,-0.088883 -0.324528,-0.1322915 -0.16123,-0.045475 -0.326595,-0.045475 -0.370003,0 -0.574641,0.2356444 -0.204639,0.2335773 -0.204639,0.6573236 0,0.4237464 0.204639,0.6593908 0.204638,0.2335772 0.574641,0.2335772 0.165365,0 0.326595,-0.043408 0.163297,-0.045475 0.324528,-0.1343586 V 3.127455 q -0.159164,0.074414 -0.330729,0.111621 -0.169499,0.037207 -0.361735,0.037207 -0.522965,0 -0.830956,-0.3286618 -0.307992,-0.3286619 -0.307992,-0.8867669 0,-0.5663732 0.310059,-0.8909009 0.312125,-0.32452772 0.853694,-0.32452772 0.175699,0 0.343131,0.037207 0.167431,0.0351399 0.324528,0.10748689 z"
         id="path16450" />
      <path
         d="m 14.113856,3.4313122 q -0.16123,0.4134111 -0.314193,0.5395015 -0.152962,0.1260904 -0.409277,0.1260904 H 13.086529 V 3.7785775 h 0.223242 q 0.157097,0 0.243913,-0.074414 0.08682,-0.074414 0.192236,-0.3513994 l 0.06821,-0.1736327 -0.936376,-2.27789522 h 0.403076 l 0.723469,1.81074062 0.723469,-1.81074062 h 0.403076 z"
         id="path16452" />
      <path
         d="m 15.106042,2.6913063 h 0.436149 v 0.5250321 h -0.436149 z"
         id="path16454" />
      <path
         d="M 17.87383,0.96944901 V 1.3291167 q -0.161231,-0.082682 -0.334863,-0.1240234 -0.173633,-0.041341 -0.359668,-0.041341 -0.283187,0 -0.425813,0.086816 -0.14056,0.086816 -0.14056,0.260449 0,0.1322915 0.101286,0.2087726 0.101285,0.074414 0.407209,0.1426268 l 0.130225,0.028939 q 0.405143,0.086816 0.574641,0.2459796 0.171566,0.1570962 0.171566,0.4402828 0,0.3224607 -0.256315,0.5105628 -0.254248,0.188102 -0.700732,0.188102 -0.186035,0 -0.388606,-0.037207 -0.200505,-0.03514 -0.423747,-0.1074869 V 2.7388486 q 0.21084,0.1095539 0.415479,0.1653644 0.204638,0.053743 0.405143,0.053743 0.268717,0 0.413411,-0.09095 0.144694,-0.093017 0.144694,-0.260449 0,-0.1550292 -0.10542,-0.2377114 -0.103353,-0.082682 -0.45682,-0.1591633 L 16.912649,2.1786765 Q 16.559182,2.1042625 16.402086,1.9513004 16.24499,1.7962712 16.24499,1.527554 q 0,-0.3265948 0.23151,-0.5043615 0.23151,-0.17776682 0.657324,-0.17776682 0.210839,0 0.396874,0.0310058 0.186035,0.0310058 0.343132,0.0930175 z"
         id="path16456" />
      <path
         d="M 20.269546,0.99011957 V 1.3456531 q -0.16123,-0.088883 -0.324528,-0.1322915 -0.16123,-0.045475 -0.326594,-0.045475 -0.370003,0 -0.574642,0.2356444 -0.204638,0.2335773 -0.204638,0.6573236 0,0.4237464 0.204638,0.6593908 0.204639,0.2335772 0.574642,0.2335772 0.165364,0 0.326594,-0.043408 0.163298,-0.045475 0.324528,-0.1343586 V 3.127455 q -0.159163,0.074414 -0.330729,0.111621 -0.169498,0.037207 -0.361734,0.037207 -0.522966,0 -0.830957,-0.3286618 -0.307991,-0.3286619 -0.307991,-0.8867669 0,-0.5663732 0.310058,-0.8909009 0.312126,-0.32452772 0.853694,-0.32452772 0.1757,0 0.343131,0.037207 0.167432,0.0351399 0.324528,0.10748689 z"
         id="path16458" />
      <path
         d="M 22.855433,1.8190088 V 3.2163384 H 22.475095 V 1.8314112 q 0,-0.3286619 -0.128157,-0.4919592 -0.128158,-0.1632974 -0.384473,-0.1632974 -0.307991,0 -0.485758,0.1963702 Q 21.29894,1.5688951 21.29894,1.9078922 V 3.2163384 H 20.916535 V -4.4703484e-8 H 21.29894 V 1.2609038 q 0.136426,-0.2087726 0.320394,-0.31212535 0.186035,-0.10335277 0.42788,-0.10335277 0.398942,0 0.603581,0.24804662 0.204638,0.2459797 0.204638,0.7255365 z"
         id="path16460" />
      <path
         d="m 23.614043,0.90123618 h 0.380338 V 3.2163384 h -0.380338 z m 0,-0.901236224703484 h 0.380338 V 0.4816239 h -0.380338 z"
         id="path16462" />
      <path
         d="m 24.790198,-4.4703484e-8 h 0.380339 V 3.2163384 h -0.380339 z"
         id="path16464" />
      <path
         d="M 27.489771,1.2526356 V -4.4703484e-8 H 27.87011 V 3.2163384 H 27.489771 V 2.8690731 q -0.119889,0.2067055 -0.303857,0.3079912 -0.181901,0.099219 -0.438216,0.099219 -0.419612,0 -0.684195,-0.334863 -0.262516,-0.334863 -0.262516,-0.8805657 0,-0.5457026 0.262516,-0.8805656 0.264583,-0.33486302 0.684195,-0.33486302 0.256315,0 0.438216,0.10128572 0.183968,0.0992187 0.303857,0.3059242 z m -1.296043,0.8082187 q 0,0.4196123 0.171565,0.6593908 0.173633,0.2377114 0.475423,0.2377114 0.30179,0 0.475423,-0.2377114 0.173632,-0.2397785 0.173632,-0.6593908 0,-0.4196122 -0.173632,-0.6573236 -0.173633,-0.2397785 -0.475423,-0.2397785 -0.30179,0 -0.475423,0.2397785 -0.171565,0.2377114 -0.171565,0.6573236 z"
         id="path16466" />
      <path
         d="m 28.653523,0.90123618 h 0.380339 V 3.2163384 h -0.380339 z m 0,-0.901236224703484 h 0.380339 V 0.4816239 h -0.380339 z"
         id="path16468" />
      <path
         d="M 31.495725,0.99011957 V 1.3456531 q -0.16123,-0.088883 -0.324527,-0.1322915 -0.161231,-0.045475 -0.326595,-0.045475 -0.370003,0 -0.574642,0.2356444 -0.204638,0.2335773 -0.204638,0.6573236 0,0.4237464 0.204638,0.6593908 0.204639,0.2335772 0.574642,0.2335772 0.165364,0 0.326595,-0.043408 0.163297,-0.045475 0.324527,-0.1343586 V 3.127455 q -0.159163,0.074414 -0.330729,0.111621 -0.169498,0.037207 -0.361734,0.037207 -0.522965,0 -0.830957,-0.3286618 -0.307991,-0.3286619 -0.307991,-0.8867669 0,-0.5663732 0.310058,-0.8909009 0.312126,-0.32452772 0.853694,-0.32452772 0.1757,0 0.343132,0.037207 0.167431,0.0351399 0.324527,0.10748689 z"
         id="path16470" />
      <path
         d="M 34.08161,1.8190088 V 3.2163384 H 33.701272 V 1.8314112 q 0,-0.3286619 -0.128157,-0.4919592 -0.128158,-0.1632974 -0.384473,-0.1632974 -0.307991,0 -0.485758,0.1963702 -0.177766,0.1963703 -0.177766,0.5353674 V 3.2163384 H 32.142712 V -4.4703484e-8 h 0.382406 V 1.2609038 q 0.136425,-0.2087726 0.320393,-0.31212535 0.186035,-0.10335277 0.427881,-0.10335277 0.398941,0 0.60358,0.24804662 0.204638,0.2459797 0.204638,0.7255365 z"
         id="path16472" />
      <path
         d="m 35.892354,2.0525861 q -0.460954,0 -0.638721,0.1054199 -0.177766,0.1054198 -0.177766,0.3596676 0,0.2025715 0.132291,0.3224607 0.134359,0.1178222 0.363802,0.1178222 0.316259,0 0.506429,-0.223242 0.192236,-0.2253091 0.192236,-0.5973791 V 2.0525861 Z M 36.650963,1.8954899 V 3.2163384 H 36.270625 V 2.864939 q -0.130225,0.2108396 -0.324528,0.3121253 -0.194303,0.099219 -0.475423,0.099219 -0.355533,0 -0.566373,-0.1984373 -0.208773,-0.2005044 -0.208773,-0.5353674 0,-0.3906735 0.260449,-0.5891108 0.262516,-0.1984374 0.781347,-0.1984374 h 0.533301 v -0.037207 q 0,-0.262516 -0.173633,-0.4051429 -0.171566,-0.1446939 -0.483691,-0.1446939 -0.198437,0 -0.386539,0.047542 -0.188102,0.047542 -0.361735,0.1426269 V 1.006656 q 0.208773,-0.0806152 0.405143,-0.11988921 0.19637,-0.0413411 0.382405,-0.0413411 0.502295,0 0.750341,0.26044902 0.248047,0.260449 0.248047,0.7896152 z"
         id="path16474" />
      <path
         d="m 37.810581,0.24391251 v 0.65732367 h 0.783414 V 1.1968251 h -0.783414 v 1.2567698 q 0,0.2831866 0.07648,0.3638018 0.07855,0.080615 0.316259,0.080615 h 0.390674 v 0.3183266 h -0.390674 q -0.440282,0 -0.607714,-0.1632974 Q 37.428176,2.8876766 37.428176,2.4535949 V 1.1968251 H 37.149123 V 0.90123618 h 0.279053 V 0.24391251 Z"
         id="path16476" />
      <path
         d="m 40.270375,2.1063296 q 0,0.2955889 0.146761,0.4650875 0.146761,0.1674315 0.403076,0.1674315 0.254247,0 0.398941,-0.1694986 0.146761,-0.1694985 0.146761,-0.4630204 0,-0.2893878 -0.148828,-0.4588864 -0.148828,-0.1715656 -0.401009,-0.1715656 -0.250113,0 -0.398941,0.1694986 -0.146761,0.1694985 -0.146761,0.4609534 z m 1.126545,0.6180496 q -0.124023,0.1591633 -0.285254,0.2356443 -0.159163,0.074414 -0.37207,0.074414 -0.355533,0 -0.578775,-0.2563149 -0.221175,-0.2583819 -0.221175,-0.671793 0,-0.4134111 0.223242,-0.6717931 0.223242,-0.2583819 0.576708,-0.2583819 0.212907,0 0.374137,0.078548 0.161231,0.076481 0.283187,0.2335773 V 1.2174957 h 0.295589 v 1.5213529 q 0.30179,-0.045475 0.471289,-0.2749184 0.171565,-0.2315102 0.171565,-0.5973791 0,-0.2211749 -0.06615,-0.4154781 -0.06408,-0.1943033 -0.19637,-0.3596677 -0.214974,-0.27078429 -0.525032,-0.41341112 -0.307991,-0.14469389 -0.671793,-0.14469389 -0.254248,0 -0.487825,0.0682128 -0.233577,0.0661458 -0.432015,0.19843733 -0.324527,0.21083965 -0.508495,0.55397085 -0.181901,0.3410642 -0.181901,0.7400059 0,0.3286619 0.117822,0.6159826 0.119889,0.2873207 0.345198,0.5064286 0.217041,0.2149738 0.502295,0.3265948 0.285253,0.113688 0.609781,0.113688 0.26665,0 0.522965,-0.09095 0.258382,-0.088883 0.473356,-0.2563149 l 0.186035,0.2294432 q -0.258382,0.2005044 -0.564306,0.3059242 -0.303857,0.1074869 -0.61805,0.1074869 -0.382405,0 -0.721402,-0.1364257 Q 39.780483,3.6814259 39.515899,3.423044 39.251316,3.164662 39.112824,2.8256649 38.974331,2.4846007 38.974331,2.0939272 q 0,-0.3762041 0.14056,-0.7172682 0.140559,-0.3410642 0.401008,-0.59944616 0.266651,-0.26251605 0.615983,-0.40100877 0.349332,-0.14055978 0.740006,-0.14055978 0.438216,0 0.812353,0.17983383 0.376204,0.17983383 0.630452,0.51056272 0.155029,0.20257146 0.235644,0.44028286 0.08268,0.2377114 0.08268,0.4919592 0,0.5436356 -0.328662,0.8578281 -0.328661,0.3141924 -0.907437,0.3265947 z"
         id="path16478" />
      <path
         d="M 44.803428,0.96944901 V 1.3291167 q -0.161231,-0.082682 -0.334863,-0.1240234 -0.173633,-0.041341 -0.359668,-0.041341 -0.283187,0 -0.425814,0.086816 -0.140559,0.086816 -0.140559,0.260449 0,0.1322915 0.101285,0.2087726 0.101286,0.074414 0.40721,0.1426268 l 0.130225,0.028939 q 0.405143,0.086816 0.574641,0.2459796 0.171566,0.1570962 0.171566,0.4402828 0,0.3224607 -0.256315,0.5105628 -0.254248,0.188102 -0.700732,0.188102 -0.186035,0 -0.388606,-0.037207 -0.200505,-0.03514 -0.423747,-0.1074869 V 2.7388486 q 0.21084,0.1095539 0.415479,0.1653644 0.204638,0.053743 0.405142,0.053743 0.268718,0 0.413412,-0.09095 0.144693,-0.093017 0.144693,-0.260449 0,-0.1550292 -0.105419,-0.2377114 -0.103353,-0.082682 -0.45682,-0.1591633 L 43.842247,2.1786765 Q 43.48878,2.1042625 43.331684,1.9513004 43.174588,1.7962712 43.174588,1.527554 q 0,-0.3265948 0.23151,-0.5043615 0.23151,-0.17776682 0.657324,-0.17776682 0.210839,0 0.396874,0.0310058 0.186035,0.0310058 0.343132,0.0930175 z"
         id="path16480" />
      <path
         d="m 45.901037,2.8690731 v 1.227831 H 45.518632 V 0.90123618 h 0.382405 V 1.2526356 q 0.119889,-0.2067055 0.30179,-0.3059242 0.183968,-0.10128572 0.438216,-0.10128572 0.421679,0 0.684195,0.33486302 0.264583,0.334863 0.264583,0.8805656 0,0.5457027 -0.264583,0.8805657 -0.262516,0.334863 -0.684195,0.334863 -0.254248,0 -0.438216,-0.099219 -0.181901,-0.1012857 -0.30179,-0.3079912 z m 1.293977,-0.8082188 q 0,-0.4196122 -0.173633,-0.6573236 -0.171566,-0.2397785 -0.473356,-0.2397785 -0.30179,0 -0.475422,0.2397785 -0.171566,0.2377114 -0.171566,0.6573236 0,0.4196123 0.171566,0.6593908 0.173632,0.2377114 0.475422,0.2377114 0.30179,0 0.473356,-0.2377114 0.173633,-0.2397785 0.173633,-0.6593908 z"
         id="path16482" />
      <path
         d="m 48.220273,0.90123618 h 0.380338 V 3.2163384 h -0.380338 z m 0,-0.901236224703484 h 0.380338 V 0.4816239 h -0.380338 z"
         id="path16484" />
      <path
         d="m 50.737947,1.2567697 q -0.06408,-0.037207 -0.14056,-0.053743 -0.07441,-0.018603 -0.165364,-0.018603 -0.322461,0 -0.496093,0.2108397 -0.171566,0.2087726 -0.171566,0.6015131 V 3.2163384 H 49.381959 V 0.90123618 h 0.382405 V 1.2609038 q 0.119889,-0.2108396 0.312125,-0.31212535 0.192237,-0.10335277 0.467155,-0.10335277 0.03927,0 0.08682,0.006201 0.04754,0.004134 0.10542,0.0144694 z"
         id="path16486" />
      <path
         d="m 51.136888,0.90123618 h 0.380338 V 3.2163384 h -0.380338 z m 0,-0.901236224703484 h 0.380338 V 0.4816239 h -0.380338 z"
         id="path16488" />
      <path
         d="m 52.689247,0.24391251 v 0.65732367 h 0.783414 V 1.1968251 h -0.783414 v 1.2567698 q 0,0.2831866 0.07648,0.3638018 0.07855,0.080615 0.316259,0.080615 h 0.390674 v 0.3183266 h -0.390674 q -0.440283,0 -0.607714,-0.1632974 Q 52.306841,2.8876766 52.306841,2.4535949 V 1.1968251 H 52.027789 V 0.90123618 h 0.279052 V 0.24391251 Z"
         id="path16490" />
      <path
         d="M 55.638933,0.99011957 V 1.3456531 q -0.161231,-0.088883 -0.324528,-0.1322915 -0.16123,-0.045475 -0.326595,-0.045475 -0.370003,0 -0.574641,0.2356444 -0.204639,0.2335773 -0.204639,0.6573236 0,0.4237464 0.204639,0.6593908 0.204638,0.2335772 0.574641,0.2335772 0.165365,0 0.326595,-0.043408 0.163297,-0.045475 0.324528,-0.1343586 V 3.127455 q -0.159163,0.074414 -0.330729,0.111621 -0.169499,0.037207 -0.361735,0.037207 -0.522965,0 -0.830956,-0.3286618 -0.307991,-0.3286619 -0.307991,-0.8867669 0,-0.5663732 0.310058,-0.8909009 0.312125,-0.32452772 0.853694,-0.32452772 0.1757,0 0.343131,0.037207 0.167432,0.0351399 0.324528,0.10748689 z"
         id="path16492" />
      <path
         d="m 57.641912,1.2567697 q -0.06408,-0.037207 -0.14056,-0.053743 -0.07441,-0.018603 -0.165364,-0.018603 -0.322461,0 -0.496093,0.2108397 -0.171566,0.2087726 -0.171566,0.6015131 V 3.2163384 H 56.285924 V 0.90123618 h 0.382405 V 1.2609038 q 0.119889,-0.2108396 0.312125,-0.31212535 0.192237,-0.10335277 0.467155,-0.10335277 0.03927,0 0.08682,0.006201 0.04754,0.004134 0.10542,0.0144694 z"
         id="path16494" />
      <path
         d="m 58.844937,1.1678863 q -0.305924,0 -0.483691,0.2397785 -0.177767,0.2377114 -0.177767,0.6531895 0,0.4154782 0.1757,0.6552567 0.177767,0.2377113 0.485758,0.2377113 0.303857,0 0.481624,-0.2397784 0.177767,-0.2397784 0.177767,-0.6531896 0,-0.411344 -0.177767,-0.6511225 -0.177767,-0.2418455 -0.481624,-0.2418455 z m 0,-0.32246062 q 0.496093,0 0.77928,0.32246062 0.283187,0.3224607 0.283187,0.892968 0,0.5684403 -0.283187,0.892968 -0.283187,0.3224607 -0.77928,0.3224607 -0.49816,0 -0.781347,-0.3224607 -0.28112,-0.3245277 -0.28112,-0.892968 0,-0.5705073 0.28112,-0.892968 0.283187,-0.32246062 0.781347,-0.32246062 z"
         id="path16496" />
      <path
         d="M 62.203905,0.99011957 V 1.3456531 q -0.161231,-0.088883 -0.324528,-0.1322915 -0.16123,-0.045475 -0.326595,-0.045475 -0.370003,0 -0.574641,0.2356444 -0.204639,0.2335773 -0.204639,0.6573236 0,0.4237464 0.204639,0.6593908 0.204638,0.2335772 0.574641,0.2335772 0.165365,0 0.326595,-0.043408 0.163297,-0.045475 0.324528,-0.1343586 V 3.127455 q -0.159164,0.074414 -0.330729,0.111621 -0.169499,0.037207 -0.361735,0.037207 -0.522965,0 -0.830956,-0.3286618 -0.307991,-0.3286619 -0.307991,-0.8867669 0,-0.5663732 0.310058,-0.8909009 0.312125,-0.32452772 0.853694,-0.32452772 0.1757,0 0.343131,0.037207 0.167432,0.0351399 0.324528,0.10748689 z"
         id="path16498" />
      <path
         d="m 62.919105,2.6913063 h 0.436148 v 0.5250321 h -0.436148 z"
         id="path16500" />
      <path
         d="M 65.734435,1.2526356 V -4.4703484e-8 h 0.380338 V 3.2163384 H 65.734435 V 2.8690731 q -0.11989,0.2067055 -0.303858,0.3079912 -0.1819,0.099219 -0.438215,0.099219 -0.419613,0 -0.684196,-0.334863 -0.262516,-0.334863 -0.262516,-0.8805657 0,-0.5457026 0.262516,-0.8805656 0.264583,-0.33486302 0.684196,-0.33486302 0.256315,0 0.438215,0.10128572 0.183968,0.0992187 0.303858,0.3059242 z m -1.296044,0.8082187 q 0,0.4196123 0.171565,0.6593908 0.173633,0.2377114 0.475423,0.2377114 0.30179,0 0.475423,-0.2377114 0.173633,-0.2397785 0.173633,-0.6593908 0,-0.4196122 -0.173633,-0.6573236 -0.173633,-0.2397785 -0.475423,-0.2397785 -0.30179,0 -0.475423,0.2397785 -0.171565,0.2377114 -0.171565,0.6573236 z"
         id="path16502" />
      <path
         d="m 68.878426,1.9637027 v 0.186035 h -1.748729 q 0.02481,0.3927406 0.235644,0.5994461 0.212907,0.2046385 0.591178,0.2046385 0.219108,0 0.423746,-0.053743 0.206706,-0.053743 0.409277,-0.1612303 v 0.3596676 q -0.204638,0.086816 -0.419612,0.1322916 -0.214974,0.045475 -0.436149,0.045475 -0.55397,0 -0.878498,-0.3224607 -0.322461,-0.3224606 -0.322461,-0.8722974 0,-0.5684403 0.305924,-0.9012362 0.307992,-0.33486302 0.82889,-0.33486302 0.467154,0 0.737939,0.30179012 0.272851,0.299723 0.272851,0.8164869 z m -0.380338,-0.111621 q -0.0041,-0.3121254 -0.1757,-0.4981604 -0.169499,-0.186035 -0.450618,-0.186035 -0.318327,0 -0.510563,0.1798339 -0.190169,0.1798338 -0.219108,0.5064286 z"
         id="path16504" />
    </g>
  </g>
</svg>
