<?xml version="1.0" encoding="UTF-8" standalone="no"?>
<svg
   xmlns:dc="http://purl.org/dc/elements/1.1/"
   xmlns:cc="http://creativecommons.org/ns#"
   xmlns:rdf="http://www.w3.org/1999/02/22-rdf-syntax-ns#"
   xmlns:svg="http://www.w3.org/2000/svg"
   xmlns="http://www.w3.org/2000/svg"
   width="24"
   height="24"
   viewBox="32.163 68.509 2.1902257 2.190288"
   version="1.1"
   id="svg12">
  <metadata
     id="metadata18">
    <rdf:RDF>
      <cc:Work
         rdf:about="">
        <dc:format>image/svg+xml</dc:format>
        <dc:type
           rdf:resource="http://purl.org/dc/dcmitype/StillImage" />
        <dc:title></dc:title>
      </cc:Work>
    </rdf:RDF>
  </metadata>
  <defs
     id="defs16">
    <clipPath
       clipPathUnits="userSpaceOnUse"
       id="clipPath918">
      <path
         id="lpe_path-effect922"
         style="stroke-width:1"
         class="powerclip"
         d="m 27.164,67.387952 h 213.69 V 301.663 H 27.164 Z M 114.878,102.087 v -0.04 c -0.012,-3.976 -3.32,-7.187 -7.388,-7.176 -4.069,0.011 -7.358,3.241 -7.347,7.216 v 0.04 c 0.012,3.974 3.32,7.186 7.388,7.176 4.07,-0.011 7.359,-3.242 7.347,-7.216 z m 54.996,0 v -0.04 c -0.012,-3.976 -3.32,-7.187 -7.388,-7.176 -4.069,0.011 -7.358,3.241 -7.347,7.216 v 0.04 c 0.012,3.974 3.32,7.186 7.388,7.176 4.07,-0.011 7.359,-3.242 7.347,-7.216 z" />
    </clipPath>
  </defs>
  <g
     id="g886">
    <g
       id="g878">
      <g
         id="g930"
         style="fill:#000000;fill-opacity:1;stroke:none;stroke-width:0;stroke-miterlimit:4;stroke-dasharray:none;stroke-opacity:1"
         transform="matrix(0.00798259,0,0,0.00798259,32.188376,68.144642)">
        <g
           id="g840"
           style="opacity:1;fill:#000000;fill-opacity:1;stroke:none;stroke-width:0;stroke-miterlimit:4;stroke-dasharray:none;stroke-opacity:1">
          <path
             style="color:#000000;font-style:normal;font-variant:normal;font-weight:normal;font-stretch:normal;font-size:medium;line-height:normal;font-family:sans-serif;font-variant-ligatures:normal;font-variant-position:normal;font-variant-caps:normal;font-variant-numeric:normal;font-variant-alternates:normal;font-variant-east-asian:normal;font-feature-settings:normal;font-variation-settings:normal;text-indent:0;text-align:start;text-decoration:none;text-decoration-line:none;text-decoration-style:solid;text-decoration-color:#000000;letter-spacing:normal;word-spacing:normal;text-transform:none;writing-mode:lr-tb;direction:ltr;text-orientation:mixed;dominant-baseline:auto;baseline-shift:baseline;text-anchor:start;white-space:normal;shape-padding:0;shape-margin:0;inline-size:0;clip-rule:nonzero;display:inline;overflow:visible;visibility:visible;isolation:auto;mix-blend-mode:normal;color-interpolation:sRGB;color-interpolation-filters:linearRGB;solid-color:#000000;solid-opacity:1;vector-effect:none;fill:#000000;fill-opacity:1;fill-rule:nonzero;stroke:none;stroke-width:0;stroke-linecap:butt;stroke-linejoin:miter;stroke-miterlimit:4;stroke-dasharray:none;stroke-dashoffset:0;stroke-opacity:1;color-rendering:auto;image-rendering:auto;shape-rendering:auto;text-rendering:auto;enable-background:accumulate;stop-color:#000000;stop-opacity:1"
             d="m 101.885,207.092 c 7.865,0 14.241,6.376 14.241,14.241 v 61.09 c 0,7.865 -6.376,14.24 -14.241,14.24 -7.864,0 -14.24,-6.375 -14.24,-14.24 v -61.09 c 0,-7.864 6.376,-14.24 14.24,-14.24 z"
             id="path842" />
          <path
             style="color:#000000;font-style:normal;font-variant:normal;font-weight:normal;font-stretch:normal;font-size:medium;line-height:normal;font-family:sans-serif;font-variant-ligatures:normal;font-variant-position:normal;font-variant-caps:normal;font-variant-numeric:normal;font-variant-alternates:normal;font-variant-east-asian:normal;font-feature-settings:normal;font-variation-settings:normal;text-indent:0;text-align:start;text-decoration:none;text-decoration-line:none;text-decoration-style:solid;text-decoration-color:#000000;letter-spacing:normal;word-spacing:normal;text-transform:none;writing-mode:lr-tb;direction:ltr;text-orientation:mixed;dominant-baseline:auto;baseline-shift:baseline;text-anchor:start;white-space:normal;shape-padding:0;shape-margin:0;inline-size:0;clip-rule:nonzero;display:inline;overflow:visible;visibility:visible;isolation:auto;mix-blend-mode:normal;color-interpolation:sRGB;color-interpolation-filters:linearRGB;solid-color:#000000;solid-opacity:1;vector-effect:none;fill:#000000;fill-opacity:1;fill-rule:nonzero;stroke:none;stroke-width:0;stroke-linecap:butt;stroke-linejoin:miter;stroke-miterlimit:4;stroke-dasharray:none;stroke-dashoffset:0;stroke-opacity:1;color-rendering:auto;image-rendering:auto;shape-rendering:auto;text-rendering:auto;enable-background:accumulate;stop-color:#000000;stop-opacity:1"
             d="m 101.38477,206.5918 v 0.0527 c -7.89779,0.2701 -14.240239,6.7245 -14.240239,14.6875 v 61.0918 c 0,8.13522 6.606016,14.73828 14.740239,14.73828 8.13518,0 14.74218,-6.60306 14.74218,-14.73828 V 221.332 c 0,-8.13523 -6.60696,-14.74023 -14.74218,-14.74023 z m 0.5,1.00195 h 0.0195 c 7.58553,0.0108 13.72265,6.1502 13.72265,13.73828 v 61.0918 c 0,7.59477 -6.14737,13.73828 -13.74218,13.73828 -7.593786,0 -13.740239,-6.14351 -13.740239,-13.73828 v -61.0918 c 0,-7.59374 6.146496,-13.73828 13.740239,-13.73828 z"
             id="path844" />
        </g>
        <g
           id="g846"
           style="opacity:1;fill:#000000;fill-opacity:1;stroke:none;stroke-width:0;stroke-miterlimit:4;stroke-dasharray:none;stroke-opacity:1">
          <path
             style="color:#000000;font-style:normal;font-variant:normal;font-weight:normal;font-stretch:normal;font-size:medium;line-height:normal;font-family:sans-serif;font-variant-ligatures:normal;font-variant-position:normal;font-variant-caps:normal;font-variant-numeric:normal;font-variant-alternates:normal;font-variant-east-asian:normal;font-feature-settings:normal;font-variation-settings:normal;text-indent:0;text-align:start;text-decoration:none;text-decoration-line:none;text-decoration-style:solid;text-decoration-color:#000000;letter-spacing:normal;word-spacing:normal;text-transform:none;writing-mode:lr-tb;direction:ltr;text-orientation:mixed;dominant-baseline:auto;baseline-shift:baseline;text-anchor:start;white-space:normal;shape-padding:0;shape-margin:0;inline-size:0;clip-rule:nonzero;display:inline;overflow:visible;visibility:visible;isolation:auto;mix-blend-mode:normal;color-interpolation:sRGB;color-interpolation-filters:linearRGB;solid-color:#000000;solid-opacity:1;vector-effect:none;fill:#000000;fill-opacity:1;fill-rule:nonzero;stroke:none;stroke-width:0;stroke-linecap:butt;stroke-linejoin:miter;stroke-miterlimit:4;stroke-dasharray:none;stroke-dashoffset:0;stroke-opacity:1;color-rendering:auto;image-rendering:auto;shape-rendering:auto;text-rendering:auto;enable-background:accumulate;stop-color:#000000;stop-opacity:1"
             d="m 69.374,133.645 c -0.047,0.54 -0.088,1.086 -0.088,1.638 v 92.557 c 0,9.954 7.879,17.973 17.66,17.973 h 94.124 c 9.782,0 17.661,-8.02 17.661,-17.973 v -92.557 c 0,-0.552 -0.02,-1.1 -0.066,-1.638 z"
             id="path848" />
          <path
             style="color:#000000;font-style:normal;font-variant:normal;font-weight:normal;font-stretch:normal;font-size:medium;line-height:normal;font-family:sans-serif;font-variant-ligatures:normal;font-variant-position:normal;font-variant-caps:normal;font-variant-numeric:normal;font-variant-alternates:normal;font-variant-east-asian:normal;font-feature-settings:normal;font-variation-settings:normal;text-indent:0;text-align:start;text-decoration:none;text-decoration-line:none;text-decoration-style:solid;text-decoration-color:#000000;letter-spacing:normal;word-spacing:normal;text-transform:none;writing-mode:lr-tb;direction:ltr;text-orientation:mixed;dominant-baseline:auto;baseline-shift:baseline;text-anchor:start;white-space:normal;shape-padding:0;shape-margin:0;inline-size:0;clip-rule:nonzero;display:inline;overflow:visible;visibility:visible;isolation:auto;mix-blend-mode:normal;color-interpolation:sRGB;color-interpolation-filters:linearRGB;solid-color:#000000;solid-opacity:1;vector-effect:none;fill:#000000;fill-opacity:1;fill-rule:nonzero;stroke:none;stroke-width:0;stroke-linecap:butt;stroke-linejoin:miter;stroke-miterlimit:4;stroke-dasharray:none;stroke-dashoffset:0;stroke-opacity:1;color-rendering:auto;image-rendering:auto;shape-rendering:auto;text-rendering:auto;enable-background:accumulate;stop-color:#000000;stop-opacity:1"
             d="m 68.916016,133.14453 -0.04102,0.45703 c -0.04735,0.54398 -0.08984,1.10488 -0.08984,1.68164 v 92.55664 c 0,10.21785 8.105872,18.47266 18.160156,18.47266 h 94.124998 c 10.05529,0 18.16016,-8.25578 18.16016,-18.47266 V 135.2832 c 0,-0.56407 -0.019,-1.12718 -0.0664,-1.68164 l -0.0391,-0.45703 z m 0.93164,1 H 198.18359 c 0.0219,0.37687 0.0469,0.75338 0.0469,1.13867 v 92.55664 c 0,9.68913 -7.65145,17.47266 -17.16016,17.47266 H 86.945312 c -9.507715,0 -17.160156,-7.7825 -17.160156,-17.47266 V 135.2832 c 0,-0.37623 0.03404,-0.75804 0.0625,-1.13867 z"
             id="path850" />
        </g>
        <g
           id="g852"
           clip-path="url(#clipPath918)"
           style="opacity:1;fill:#000000;fill-opacity:1;stroke:none;stroke-width:0;stroke-miterlimit:4;stroke-dasharray:none;stroke-opacity:1">
          <path
             style="color:#000000;font-style:normal;font-variant:normal;font-weight:normal;font-stretch:normal;font-size:medium;line-height:normal;font-family:sans-serif;font-variant-ligatures:normal;font-variant-position:normal;font-variant-caps:normal;font-variant-numeric:normal;font-variant-alternates:normal;font-variant-east-asian:normal;font-feature-settings:normal;font-variation-settings:normal;text-indent:0;text-align:start;text-decoration:none;text-decoration-line:none;text-decoration-style:solid;text-decoration-color:#000000;letter-spacing:normal;word-spacing:normal;text-transform:none;writing-mode:lr-tb;direction:ltr;text-orientation:mixed;dominant-baseline:auto;baseline-shift:baseline;text-anchor:start;white-space:normal;shape-padding:0;shape-margin:0;inline-size:0;clip-rule:nonzero;display:inline;overflow:visible;visibility:visible;isolation:auto;mix-blend-mode:normal;color-interpolation:sRGB;color-interpolation-filters:linearRGB;solid-color:#000000;solid-opacity:1;vector-effect:none;fill:#000000;fill-opacity:1;fill-rule:nonzero;stroke:none;stroke-width:0;stroke-linecap:butt;stroke-linejoin:miter;stroke-miterlimit:4;stroke-dasharray:none;stroke-dashoffset:0;stroke-opacity:1;color-rendering:auto;image-rendering:auto;shape-rendering:auto;text-rendering:auto;enable-background:accumulate;stop-color:#000000;stop-opacity:1"
             d="m 166.133,207.092 c 7.865,0 14.241,6.376 14.241,14.241 v 61.09 c 0,7.865 -6.376,14.24 -14.241,14.24 -7.864,0 -14.24,-6.375 -14.24,-14.24 v -61.09 c 0,-7.864 6.376,-14.24 14.24,-14.24 z M 46.405,141.882 c 7.864,0 14.24,6.376 14.24,14.241 v 61.09 c 0,7.865 -6.376,14.241 -14.24,14.241 -7.865,0 -14.241,-6.376 -14.241,-14.24 v -61.09 c -0.001,-7.865 6.375,-14.242 14.241,-14.242 z m 175.209,0 c 7.864,0 14.24,6.376 14.24,14.241 v 61.09 c 0,7.865 -6.376,14.241 -14.24,14.241 -7.865,0 -14.241,-6.376 -14.241,-14.24 v -61.09 c 0,-7.865 6.376,-14.242 14.241,-14.242 z M 69.79,127.565 c 0.396,-28.43 25.21,-51.74 57.062,-54.812 0,0 4.76756,-0.365048 7.156,-0.365048 2.38844,0 7.156,0.365048 7.156,0.365048 31.854,3.073 56.666,26.384 57.062,54.812 z"
             id="path854" />
          <path
             style="color:#000000;font-style:normal;font-variant:normal;font-weight:normal;font-stretch:normal;font-size:medium;line-height:normal;font-family:sans-serif;font-variant-ligatures:normal;font-variant-position:normal;font-variant-caps:normal;font-variant-numeric:normal;font-variant-alternates:normal;font-variant-east-asian:normal;font-feature-settings:normal;font-variation-settings:normal;text-indent:0;text-align:start;text-decoration:none;text-decoration-line:none;text-decoration-style:solid;text-decoration-color:#000000;letter-spacing:normal;word-spacing:normal;text-transform:none;writing-mode:lr-tb;direction:ltr;text-orientation:mixed;dominant-baseline:auto;baseline-shift:baseline;text-anchor:start;white-space:normal;shape-padding:0;shape-margin:0;inline-size:0;clip-rule:nonzero;display:inline;overflow:visible;visibility:visible;isolation:auto;mix-blend-mode:normal;color-interpolation:sRGB;color-interpolation-filters:linearRGB;solid-color:#000000;solid-opacity:1;vector-effect:none;fill:#000000;fill-opacity:1;fill-rule:nonzero;stroke:none;stroke-width:0;stroke-linecap:butt;stroke-linejoin:miter;stroke-miterlimit:4;stroke-dasharray:none;stroke-dashoffset:0;stroke-opacity:1;color-rendering:auto;image-rendering:auto;shape-rendering:auto;text-rendering:auto;enable-background:accumulate;stop-color:#000000;stop-opacity:1"
             d="m 134.00781,71.888672 c -2.43938,0 -7.19336,0.365234 -7.19336,0.365234 h -0.006 l -0.004,0.002 C 94.736811,75.34868 69.691014,98.841547 69.291016,127.55859 l -0.0078,0.50586 h 0.505859 128.943355 l -0.006,-0.50586 c -0.4,-28.715039 -25.4438,-52.208906 -57.51367,-55.302731 l -0.006,-0.002 h -0.004 c 0,0 -4.75592,-0.365234 -7.19531,-0.365234 z m 0,1 c 2.3375,0 7.11719,0.363281 7.11719,0.363281 31.44069,3.037523 55.88484,25.907027 56.56641,53.812497 H 70.324219 c 0.681594,-27.907417 25.127708,-50.775963 56.566401,-53.812497 0,0 4.7797,-0.363281 7.11719,-0.363281 z M 46.404297,141.38281 c -8.136235,0 -14.741269,6.60693 -14.740235,14.74219 v 61.08984 c 0,8.13426 6.605008,14.73828 14.740235,14.73828 8.134261,0 14.740234,-6.605 14.740234,-14.74023 v -61.08984 c 0,-8.13523 -6.605973,-14.74024 -14.740234,-14.74024 z m 175.208983,0 c -8.13527,0 -14.74023,6.60501 -14.74023,14.74024 v 61.09179 c 0,8.13426 6.605,14.73828 14.74023,14.73828 8.13426,0 14.74024,-6.605 14.74024,-14.74023 v -61.08984 c 0,-8.13523 -6.60598,-14.74024 -14.74024,-14.74024 z m -175.208983,1 c 7.593739,0 13.740234,6.14546 13.740234,13.74024 v 61.08984 c 0,7.59477 -6.146495,13.74023 -13.740234,13.74023 -7.594773,0 -13.740235,-6.14454 -13.740235,-13.73828 v -61.09179 c -9.65e-4,-7.59474 6.14447,-13.74024 13.740235,-13.74024 z m 175.208983,0 c 7.59374,0 13.74024,6.14546 13.74024,13.74024 v 61.08984 c 0,7.59477 -6.1465,13.74023 -13.74024,13.74023 -7.59477,0 -13.74023,-6.14454 -13.74023,-13.73828 v -61.09179 c 0,-7.59478 6.1455,-13.74024 13.74023,-13.74024 z m -55.98047,64.20899 v 0.0527 c -7.89778,0.2701 -14.24023,6.7245 -14.24023,14.6875 v 61.0918 c 0,8.13522 6.60601,14.73828 14.74023,14.73828 8.13519,0 14.74024,-6.60306 14.74024,-14.73828 V 221.332 c 0,-8.13523 -6.60501,-14.74023 -14.74024,-14.74023 z m 0.5,1.00195 h 0.0195 c 7.58553,0.0108 13.72071,6.1502 13.72071,13.73828 v 61.0918 c 0,7.59477 -6.14542,13.73828 -13.74024,13.73828 -7.59378,0 -13.74023,-6.14351 -13.74023,-13.73828 v -61.0918 c 0,-7.59374 6.14649,-13.73828 13.74023,-13.73828 z"
             id="path856" />
        </g>
        <path
           style="color:#000000;font-style:normal;font-variant:normal;font-weight:normal;font-stretch:normal;font-size:medium;line-height:normal;font-family:sans-serif;font-variant-ligatures:normal;font-variant-position:normal;font-variant-caps:normal;font-variant-numeric:normal;font-variant-alternates:normal;font-variant-east-asian:normal;font-feature-settings:normal;font-variation-settings:normal;text-indent:0;text-align:start;text-decoration:none;text-decoration-line:none;text-decoration-style:solid;text-decoration-color:#000000;letter-spacing:normal;word-spacing:normal;text-transform:none;writing-mode:lr-tb;direction:ltr;text-orientation:mixed;dominant-baseline:auto;baseline-shift:baseline;text-anchor:start;white-space:normal;shape-padding:0;shape-margin:0;inline-size:0;clip-rule:nonzero;display:inline;overflow:visible;visibility:visible;opacity:1;isolation:auto;mix-blend-mode:normal;color-interpolation:sRGB;color-interpolation-filters:linearRGB;solid-color:#000000;solid-opacity:1;vector-effect:none;fill:#000000;fill-opacity:1;fill-rule:nonzero;stroke:none;stroke-width:0;stroke-linecap:round;stroke-linejoin:round;stroke-miterlimit:4;stroke-dasharray:none;stroke-dashoffset:0;stroke-opacity:1;color-rendering:auto;image-rendering:auto;shape-rendering:auto;text-rendering:auto;enable-background:accumulate;stop-color:#000000;stop-opacity:1"
           d="m 74.769531,68.509766 a 1.5,1.5 0 0 0 -0.777343,0.199218 1.5,1.5 0 0 0 -0.548829,2.050782 l 15.023438,26.019531 a 1.5,1.5 0 0 0 2.048828,0.548828 1.5,1.5 0 0 0 0.548828,-2.048828 L 76.042969,69.259766 a 1.5,1.5 0 0 0 -1.273438,-0.75 z m 118.468749,0 a 1.5,1.5 0 0 0 -1.26172,0.75 l -15.02344,26.019531 a 1.5,1.5 0 0 0 0.55079,2.048828 1.5,1.5 0 0 0 2.04882,-0.548828 l 15.02149,-26.019531 a 1.5,1.5 0 0 0 -0.54883,-2.048828 1.5,1.5 0 0 0 -0.78711,-0.201172 z"
           id="path860" />
      </g>
    </g>
  </g>
</svg>
