<?xml version="1.0" encoding="UTF-8" standalone="no"?>
<svg
   xmlns:dc="http://purl.org/dc/elements/1.1/"
   xmlns:cc="http://creativecommons.org/ns#"
   xmlns:rdf="http://www.w3.org/1999/02/22-rdf-syntax-ns#"
   xmlns:svg="http://www.w3.org/2000/svg"
   xmlns="http://www.w3.org/2000/svg"
   xmlns:sodipodi="http://sodipodi.sourceforge.net/DTD/sodipodi-0.dtd"
   xmlns:inkscape="http://www.inkscape.org/namespaces/inkscape"
   width="16"
   height="16"
   stroke="#33691e"
   fill="none"
   version="1.1"
   id="svg6"
   sodipodi:docname="web-16.svg"
   inkscape:version="1.0.1 (3bc2e813f5, 2020-09-07)">
  <metadata
     id="metadata12">
    <rdf:RDF>
      <cc:Work
         rdf:about="">
        <dc:format>image/svg+xml</dc:format>
        <dc:type
           rdf:resource="http://purl.org/dc/dcmitype/StillImage" />
        <dc:title />
      </cc:Work>
    </rdf:RDF>
  </metadata>
  <defs
     id="defs10" />
  <sodipodi:namedview
     pagecolor="#ffffff"
     bordercolor="#666666"
     borderopacity="1"
     objecttolerance="10"
     gridtolerance="10"
     guidetolerance="10"
     inkscape:pageopacity="0"
     inkscape:pageshadow="2"
     inkscape:window-width="1920"
     inkscape:window-height="982"
     id="namedview8"
     showgrid="false"
     inkscape:zoom="40.96"
     inkscape:cx="7.2573963"
     inkscape:cy="7.4451705"
     inkscape:window-x="0"
     inkscape:window-y="32"
     inkscape:window-maximized="1"
     inkscape:current-layer="g855"
     inkscape:document-rotation="0" />
  <g
     id="g855">
    <g
       id="g839"
       style="stroke:none;stroke-opacity:1;fill:#000000;fill-opacity:1;stroke-width:0;stroke-miterlimit:4;stroke-dasharray:none"
       transform="matrix(0.03846183,0,0,0.03848708,-0.0769843,-0.07713636)">
      <path
         style="color:#000000;font-style:normal;font-variant:normal;font-weight:normal;font-stretch:normal;font-size:medium;line-height:normal;font-family:sans-serif;font-variant-ligatures:normal;font-variant-position:normal;font-variant-caps:normal;font-variant-numeric:normal;font-variant-alternates:normal;font-variant-east-asian:normal;font-feature-settings:normal;font-variation-settings:normal;text-indent:0;text-align:start;text-decoration:none;text-decoration-line:none;text-decoration-style:solid;text-decoration-color:#000000;letter-spacing:normal;word-spacing:normal;text-transform:none;writing-mode:lr-tb;direction:ltr;text-orientation:mixed;dominant-baseline:auto;baseline-shift:baseline;text-anchor:start;white-space:normal;shape-padding:0;shape-margin:0;inline-size:0;clip-rule:nonzero;display:inline;overflow:visible;visibility:visible;isolation:auto;mix-blend-mode:normal;color-interpolation:sRGB;color-interpolation-filters:linearRGB;solid-color:#000000;solid-opacity:1;vector-effect:none;fill:#000000;fill-opacity:1;fill-rule:nonzero;stroke:none;stroke-width:0;stroke-linecap:butt;stroke-linejoin:miter;stroke-miterlimit:4;stroke-dasharray:none;stroke-dashoffset:0;stroke-opacity:1;color-rendering:auto;image-rendering:auto;shape-rendering:auto;text-rendering:auto;enable-background:accumulate;stop-color:#000000;stop-opacity:1;opacity:1"
         d="M 208.93359 2 C 94.419376 2.5872601 1.7055239 96.023559 2.0058594 210.48438 C 2.30618 324.93954 95.51336 417.73242 210 417.73242 C 324.48664 417.73242 417.69382 324.93954 417.99414 210.48438 C 418.29448 96.023559 325.58062 2.5872601 211.06641 2 L 211.0332 2 L 208.9668 2 L 208.93359 2 z M 209.06641 28 L 210.93359 28 C 311.41848 28.515314 392.25765 109.99129 391.99414 210.41602 C 391.73065 310.8353 310.4818 391.73242 210 391.73242 C 109.5182 391.73242 28.269351 310.8353 28.005859 210.41602 C 27.742353 109.99129 108.58152 28.515314 209.06641 28 z "
         id="path835" />
      <path
         style="color:#000000;font-style:normal;font-variant:normal;font-weight:normal;font-stretch:normal;font-size:medium;line-height:normal;font-family:sans-serif;font-variant-ligatures:normal;font-variant-position:normal;font-variant-caps:normal;font-variant-numeric:normal;font-variant-alternates:normal;font-variant-east-asian:normal;font-feature-settings:normal;font-variation-settings:normal;text-indent:0;text-align:start;text-decoration:none;text-decoration-line:none;text-decoration-style:solid;text-decoration-color:#000000;letter-spacing:normal;word-spacing:normal;text-transform:none;writing-mode:lr-tb;direction:ltr;text-orientation:mixed;dominant-baseline:auto;baseline-shift:baseline;text-anchor:start;white-space:normal;shape-padding:0;shape-margin:0;inline-size:0;clip-rule:nonzero;display:inline;overflow:visible;visibility:visible;isolation:auto;mix-blend-mode:normal;color-interpolation:sRGB;color-interpolation-filters:linearRGB;solid-color:#000000;solid-opacity:1;vector-effect:none;fill:#000000;fill-opacity:1;fill-rule:nonzero;stroke:none;stroke-width:0;stroke-linecap:butt;stroke-linejoin:miter;stroke-miterlimit:4;stroke-dasharray:none;stroke-dashoffset:0;stroke-opacity:1;color-rendering:auto;image-rendering:auto;shape-rendering:auto;text-rendering:auto;enable-background:accumulate;stop-color:#000000;stop-opacity:1;opacity:1"
         d="M 189.19336 13.123047 C 157.32476 40.036844 132.89333 73.918612 117.23828 111.54688 C 98.757828 104.19162 80.93904 94.596776 64.226562 82.673828 L 53.773438 97.326172 C 71.760267 110.15826 90.951552 120.46509 110.85938 128.35742 C 103.03121 151.60215 98.542089 176.05 97.578125 201 L 15 201 L 15 219 L 97.523438 219 C 98.296372 244.00435 102.63367 268.51246 110.30273 291.84375 C 90.592286 299.70838 71.594074 309.9603 53.773438 322.67383 L 64.226562 337.32617 C 80.715652 325.56259 98.274667 316.03984 116.49023 308.72266 C 132.10945 347.04878 156.83323 381.54805 189.19336 408.87695 L 200.80664 395.12305 C 170.88772 369.85581 148.00086 338.00736 133.45312 302.62695 C 155.43856 295.58611 178.17334 291.80436 201 290.98633 L 201 405 L 219 405 L 219 290.98633 C 241.82666 291.80436 264.56144 295.58611 286.54688 302.62695 C 271.99914 338.00736 249.11228 369.85581 219.19336 395.12305 L 230.80664 408.87695 C 263.16677 381.54805 287.89055 347.04878 303.50977 308.72266 C 321.72533 316.03984 339.28435 325.56259 355.77344 337.32617 L 366.22656 322.67383 C 348.40593 309.9603 329.40771 299.70838 309.69727 291.84375 C 317.36633 268.51246 321.70363 244.00435 322.47656 219 L 405 219 L 405 201 L 322.42188 201 C 321.45791 176.05 316.96879 151.60215 309.14062 128.35742 C 329.04845 120.46509 348.23973 110.15826 366.22656 97.326172 L 355.77344 82.673828 C 339.06096 94.596776 321.24217 104.19162 302.76172 111.54688 C 287.10667 73.918612 262.67524 40.036844 230.80664 13.123047 L 219.19336 26.876953 C 248.6207 51.729042 271.21948 82.959038 285.79883 117.64258 C 264.04819 124.53234 241.56526 128.20501 219 129.01367 L 219 15 L 201 15 L 201 129.01367 C 178.43474 128.20501 155.95181 124.53234 134.20117 117.64258 C 148.78052 82.959038 171.3793 51.729042 200.80664 26.876953 L 189.19336 13.123047 z M 127.80859 134.44336 C 151.62355 142.07948 176.26406 146.16013 201 146.98633 L 201 201 L 115.57812 201 C 116.52663 178.14343 120.66761 155.75439 127.80859 134.44336 z M 292.19141 134.44336 C 299.33239 155.75439 303.47337 178.14343 304.42188 201 L 219 201 L 219 146.98633 C 243.73594 146.16013 268.37645 142.07948 292.19141 134.44336 z M 115.52344 219 L 201 219 L 201 273.01367 C 176.06962 273.84636 151.24089 278.00576 127.25195 285.75586 C 120.26813 264.36005 116.28409 241.91016 115.52344 219 z M 219 219 L 304.47656 219 C 303.71591 241.91016 299.73187 264.36005 292.74805 285.75586 C 268.75911 278.00576 243.93038 273.84636 219 273.01367 L 219 219 z "
         id="path839" />
    </g>
  </g>
</svg>
